<mxfile host="app.diagrams.net" modified="2024-03-08T05:08:01.803Z" agent="Mozilla/5.0 (Macintosh; Intel Mac OS X 10_15_7) AppleWebKit/537.36 (KHTML, like Gecko) Chrome/122.0.0.0 Safari/537.36" etag="1l2mT7yXRMGC3KP730Mv" version="24.0.2" type="device">
  <diagram name="Page-1" id="fX3OPCGFFOyEO9B1IVfB">
    <mxGraphModel dx="965" dy="545" grid="1" gridSize="10" guides="1" tooltips="1" connect="1" arrows="1" fold="1" page="1" pageScale="1" pageWidth="850" pageHeight="1100" math="0" shadow="0">
      <root>
        <mxCell id="0" />
        <mxCell id="1" parent="0" />
        <mxCell id="dhW7Y5vE-Pte1g8_rLPb-3" value="" style="group" parent="1" vertex="1" connectable="0">
          <mxGeometry x="45" y="250" width="195" height="60" as="geometry" />
        </mxCell>
        <mxCell id="dhW7Y5vE-Pte1g8_rLPb-1" value="&lt;div&gt;MongoDB Atlas&lt;/div&gt;" style="rounded=1;whiteSpace=wrap;html=1;" parent="dhW7Y5vE-Pte1g8_rLPb-3" vertex="1">
          <mxGeometry x="25" width="170" height="60" as="geometry" />
        </mxCell>
        <mxCell id="bkZSs18tM1RNsjHw4RB3-35" value="" style="shape=image;verticalLabelPosition=bottom;labelBackgroundColor=default;verticalAlign=top;aspect=fixed;imageAspect=0;image=data:image/png,iVBORw0KGgoAAAANSUhEUgAAAoAAAAFoCAYAAADHMkpRAABDHElEQVR4Xu3dB3gU1frH8QCKXhu7AREFEayI7dr1qtersEuXjlQVURFUFITdJEAKXXoH6UER6YiAAtJ77xB6CQGSkEBCenZz/jPx+r84Z4H0Lef7Ps/n0efN7uzJZvfMj9mdM35CCD8AAACoQ2oAAADAt0kNAAAA+DapAQCFJfpqfLHIyzG3nLscU1Jz+zVu+2+vREJqknQ/AEDBkhoAUBAOXzx96/y9a8ot2Lv2qfl71/5b+2/dFwZ/2LKUzdLZZLf2NNksfTXfZbNbe5vslh5mu7XDBz/2aqbdtpZ2n9e0/z6mbcM/PjmxuHH7AIC8kxoAkFdaaLsjcNH4V4J+HdfeOubrIVqom6eFui1awDut/feqxqkRN5GpuazdJ0L77xptGz99OrN/n6BF45tq265y4MLJW42PCwDIHakBADmRlZX1/xpOtj9lGd0p5LFezVaabNbjeoDTOFyEu7zKMNusF7VtH3ppYNuFljGdPum7YlrZvx7fODYAwI1JDQC4mX1Rx28bu37eU/fYq3fQgtk6859H7YyhrbAlaIFwnjnQ2njr6YPlz8RfvMU4TgCAa1IDAK7n4IWTt41ZN+eVx3u/H6wFsH3mgj3Kl1cZJrt1Sd3vu34xZt3cx5LSUooZxw0A+DupAQCufP7zgErvjPxigNlu0YKfJcNFEHOnLG1Midp/N74/tUd7LQjeZRw/AOB/pAYA6JxZWX5nr8SX6L/sx/uq9mnV0d9uPakFrLQ/w5YUwDyFHgSv3t+97tqn+rR5b0XEjlIXr16VfjcAUJ3UAADdov0b/W8P+qiVyW5Za9ZPwpDDlqdL1sY+86nhIa/vizp+h/H3AwCVSQ0Aatt2+lDJwEXj//1waOMpWoCKcxGsvIY2/izNkf+M6Ng3aPGYKldSrvL9QAAQBEAA/6Uvp9J4zJdlnxvQ5jvzn0u5uOPM3sKSYrZb9r49rH3bAYvH3cLSMQBUJzUAqOVycmLxLacOlK828stPtZAU5SI8+RCLFmot6+wLx9TXfmd/43MBAKqQGgDUMX3r73d1mjO0uclmWaIFpGQ5MPmsS6Zulimj1s55de2xPVxZBIBypAYA37fs+J5irX7q93z5HvUna2Hogtmzz+wtLFkmm3XPCwM/DHl/5oAKMUkJ0vMEAL5KagDwXTFX40usPbarUsWQxn1K/Xl9Xl/6nl9e6MvGpGrPxYF/DW3fJvJydKnE1OTixucNAHyN1ADge84nxBWbt2dN+TeGfvqh2WbZ7yIIwWZN1yxo//OAevN2rSrFiSIAfJnUAOBb+s6fd2vL8JBGJrt1nhZ0rpjV/Lg3p/TnJtLUtdr3tnnjnp2/dav0fAKAL5AaALyffvTKmeX0G7D8h0plur43Xgs1582ecd1eb5Fp6mbd92hIi29XHtlh1p9L43MMAN5MagDwboeiTxabsX3ZE6ZulmCz3aKf4GEMN8gFk916oHJI4xZbTh+493xCDAtJA/AJUgOAdzp+/LjfsJmTyr44pE1rLfhtNHPEryAlmwOqT38/vHvNIeNH/cPp5IggAO8mNQB4n4TUpOKW79q/e/cnb8w22a2xZr7nVxgc2nN78q4WL40NWTKhovFvAADeRGoA8A7pjgy/yMsXS341d+CjT/RuNspss8SbOOpXFDLKBtU6UrVv86+mb13ywPmEGJaNAeB1pAYA7zBqzc+PlQ2s1tVssx7VQonTRVBB4dIvK7f+8d71mm0+tb+08e8DAJ5MagDwbL8d3Hx3wKKx75ex11iphZAUF8EERSvu+e8+mBTwy9i3T8ZGlTT+vQDAE0kNAJ5HX4YkNulKsf+M/vr5Kr2bzzTZrdFmvufnQSwZZpv11KuD2w3+dNYgk8PpzF6Kx/h3BABPITUAeJYLCZdK1hrVqUqpbtWGmDni5/FMWhC845u3O4QtmfRgakYa3w8E4JGkBgDPMWbtvIqtwkO+0YLFTjPX7fUmyZqlYUsnNV1yYP2dxr8rALib1ADgfjO3Lbu1TXhoHX97jVVakEhwETDgDWyWqCp93p/Q5oewFw5dOMXRQAAeQ2oAcJ99kSdvf6jLhy9X6FHvJ5PNEmvie37eLsukX1bObol8JKzJgHemjC0Xl5xwi/HvDgBFTWoAKHrHYiJvmbtn9ZOPhDYJNf95gocxSMAHaGFwZ4OJ9o+1v3WFxLRkLisHwG2kBoCi1eOXcWXqjO/6pRYO1msyjKEBvsZyWfs7L+wwa2D96ZuXlDC+HgCgKEgNAIVPXyJk+Ijhxf4T/OHr/jaL/j2/y2Y+7lWJvnB3ZKWQhqPfbNfwka3btrJsDIAiJTUAFK5dZyNuH/zHjNfNNmu4+c+zRY3hACqxWS9o/w1dc2xXpZOxURwRBFAkpAaAwrEvKqLY6LWzHqsc3LC7tsM/JgUBqEw/+rvSOvrrD4esnFM2LilRev0AQEGSGgAK3rGYyDvfGt6+rb/dstpsYzFnuKSHwNi7u1rntZoW9h/jawgACpLUAFAwktNT/c7EXbiz4YTAVx8JbbLKZLNeNf/53S/jjh+4lsPfXiO2Sp/mw/svD69yJv5CSf1SgMbXFwDkh9QAkH+/HN5wq/2X0a+V6lZthNlmiTNzggdyT3/NHC1lr277ccfvlbeeOyy9zgAgr6QGgPyZsf23B8qG1gk02S37zFy+DfmXroXAJS8Pb9d8+5lD9xhfbwCQF1IDQO45nE6/fVHHbq82umPDyqENV5vtliQXO3IgjyxOTcw/B7SZVXeC7dlMp6MYHwsDyA+pASDnYpKS/DaeOnL3a0PavW6yWZZpO2uHvPMGCpAte+mgAV/OH/rU+tMnSmY6CYIAck9qAMiZxNSkEh/PGvnC3QFNvtN2yJHSjhooPJlaENz1j6DWXSZt/vUB42sTAG5GagC4ueGr5tzdeFJgZ5PdukfbGae62EEDReHqg8H1l7SZHlp39dGdtxlfpwBwPVIDgGtRUVF+vx3abHp6QKv65YLqrjfZLFzFA55A/35g/EMhDWa+OrTd86ejo26Lj4+XXr8AcC2pAUC2O/LoHVXqvvEvbWc708zl2+CpbNaYuz96rXvz7l9UvZBw6Rbj6xgA/iI1APxPXFJCsYCFY594c1j7viabJULa4QKexmZNNdmsG1tMC+k0bPWPpYyvaQDQSQ0Awk9fYqPrgom3/mvo5+20Haq+np9++TYWc4a3yDLZrVfu71576Ztjvnlr7sHNJbKysqTXOQB1SQ1AZU5tJ7np5D7/LvNH1DfZrOvMLOQM75dkslnCf9qx7NWDF05yogiAbFIDUNXqI7tuGbpq5mtme/Up2k4z1sWOFPBmx14a+JF9+OpZj5+8dL648fUPQC1SA1DNhatxfk1mBJd/bsCHoaY/P+7lo174Iv11naQf2baO/rrdl0tGlDS+FwCoQ2oAqriSklT8dNwF08uDP/qwlL36AZPdmvbfnaRxxwn4kiyzzZrkH1BjyZezh7ypvQfuTM/MkN4fAHyb1AB8nX7d3jl7V5X6eEa/ulrom6/tEDNc7CQBFcRq//gZOWzVzNfWHdtbwvheAeC7pAbgy2YdOODXZeH3z5oDrRPNtuzLt3HED6pzmm2WvU/1bf1t519/rLA/Olp63wDwPVID8EWZDoff74c2lX6kd6uuJnvN/WbO7gWulWWyWxLvsdde88Kgdo0uJV25VT9SbnwfAfAdUgPwJeeuxPhtOrW/7EMh9VtpOzk9+Bl3fACMbNYFjScFvbn5xJ67k9KSpfcVAO8nNQBfkJGR4Tdw3PA7mk3pXtM/oMYPZi7fBuSG02SznCnT9T+Dev467gXj+wuA95MagC+wLRhT8a6WL48z26wnNQ4XOzgAN2VJLx1QY1er8JCOP+9cYTa+zwB4L6kBeKvTl2OKT968sPwTfZp2KhNY65gW/Di7F8g//fuByeV7vLf+kbD36+85d+ye6KQr0vsPgHeRGoA3Wn98T+nSYU2bm+2W9WZO8AAKS1opu3XyOxPsbx6LibzD+D4E4D2kBuBNtJ1QSdvC0W8/07/1ZJPNEudihwWgAJnsVocmos74b/sFLRr7uPE9CcA7SA3A0zmznH4Zjsxibaf39X9pUNsh2k7ptInFnIGiZbOm+Nut+98Z0bHVuLVz/5GRmemXlZUlvV8BeCapAXiylPTU4j2WTax4Z+C7Hc12yylppwSgqOlfuVhz2yf16q84vNNkfM8C8ExSA/BUC/auu7PH4u+bazub38w2lnUBPExc5dDGY4av+vn13ZFHSxrfvwA8i9QAPM3+qJPFW08Le+GxsGYTTTbreRc7HgAewZJpsln2vzGsfehHM0PKGd/LADyH1AA8xaWkK7e8OWFk+UohDQdowS/KbLPoHzVx7V7As+nv0TST3RLx8Je1mnUN625OTk8tbnx/A3AvqQG4W0JqUrHZu1ZVqDe+WzttR7LLxQ4GgHdI1v7htjBo0dj3lh7YeJfxvQ7AfaQG4E7hG+aW+OSn/g3NNusvmssudigAvI4lsmLP90YGLBr53OZTu4sZ3/cAip7UAIqavnREuiOj2JTNvz5eKbjeWJPNEqXtNJzyTgSA97Kk+9st+57p37Lbvqjj5kxHpjQXACg6UgMoSkdjIkssP7z1YZO9eqi2k7gg7zQA+KDD/xrcvtGGE3vLxiZd4Ygg4AZSAygKMUkJfoPWzi37n5FfflSqm3WVmZM7AJVkmW2WhFJ26w+fzvyu9tg1c1g2BihiUgMoCk0n93jn7oCa87UdQWz2zkDeQQDwfQ6TzXrqXnvNYSPXzK5snCcAFB6pARQGh9Ppd/LS+ZK9fptU9fFezUb42636dXsdLnYIANSTUS6oTsTjvZt8/dvBTRXOX4nlY2GgkEkNoKBtOnvAb+rWJQ+XstewaxP9UTNH/AC45jTZretfHPhh/Zm7N5Y5ffmyNJ8AKBhSAyhIm08dKPXCsLYtStktv2mTe7qLCR8ArqX/AzH67oAGUxpMCXv7ckpiCeO8AiD/pAaQX5lOh196Zkaxmt9/8+wz/VvN1v5FH2NmWRcAuZOhzR1n/zX0077Biyf663OKMytLmm8A5I3UAPIjPjmheNu5/SvdHVAtyGy3JLqY1AEgN5wmm/XAP9rXbTN+zeLS+rqhxnkHQO5JDSCvJkyeWKLj7EF1tAn7d02qi4kcAPLqitleY/KQRdMeX7FihTT/AMgdqQHkxbg1c0ve9+GbX5tt1hNmPu4FUDgcpTq9s/KZbk1qbTp1gO8GAvkgNYDc0L+XM3rN3IrlguqOM9ksCS4mbAAoSPqZwucqhjTotOPM4XuMcxKAnJEaQG4MXz3rebPdskiblDNdTNQAUFjSKoc0+G7jyb1ljfMSgJuTGkBOjd+w4OkyATXXmPnIF4BbWFKfH/DBiDVHd5U3zk8AbkxqADfjdDr9vt+44PkKPeuvNhP+ALiTzZpctW+LiTvPRpTjDGEg56QGcCMZjsxiQ1fNfEWbeDdKEzEAuM+MXWePmI1zFgDXpAZwI2PWza2kTbR/mLmcGwDP4nyqb8v+q4/sNBnnLQAyqQFcz7gNc+4s36PuVH2idTH5AoB72axx/+z/YaeNJ/aXNM5fAP5OagCuzNr12x0P9qzV12y3JEmTLgB4hiwtBEZV7tX4/XNXolknELgBqQEYxScn3tpx9qDW2uQa5WLCBQBPc2Dy5sXPGucyAP8jNQCj9j/3e1KbULe7mGQBwCM90KPezPBtv95hnM8A/ElqANfSz/ot1732ZG1CdRgnWADwXJaEluE9P810OooZ5zUABEDcwJn4qGL/HtG+gTaRZsiTK5B//i56QEEx2ax7O88d/sqVlKvS/AaoTmoAf+m7fGJF/4DqXOkDhabxpEDx7+EdpD5QIGzWdP+u1uGbTuwrZZzfANVJDUC34/TB4i8M+KCTNolekSZVoADUGPuNiLh4Rizav148/92H0s+BgmCyWaMs47q8melwSPMcoDKpATicDr8pm3592mSzbDaz4DMKmL+9hnh31Jdix9nDIisrS2g7ZjFzxwpRpU9z6bZAAcgy2a3zT1+6cItxrgNUJjWA2KuXbyn1rbWzNnFmuphMgXx5ZVA78UfEduF0OsVflan9/7j188X93etKtwcKQOa7I7582TjXASqTGoBt4UR/k826y8UkCuTLA93ridm7VooMR6YwVnJ6qugyf4QoE1BTuh+QX4/2bjJ5wYFVLA4N/JfUAJ7t/2FjE0f/UMBKB9QQfX6fKtIzM4Sr0j8OPnXpvGgVHsLZwSgE1Y/afhn1knAx5wEqkhpQW0T06Vuf7Nv8N3nyBPKuXPc64tv5I0R8cqK4WR26cFLU+76b8NcCo3E7QD6ktA4PDYtOjOe7gIAgAMLg05n9nzfZLeddTJ5AnuhH/ppMDhJHYyJFTmvd8T3i6f6tpG0B+WHqZl02e+eqh4SLuQ9QjdSA2j6b2d9mtluSjRMnkFfP9W8jtp4+KJxZWSKn5XA6xZTNi8V9QbWl7QF5ZbJbL8zevdIiXMx9gGqkBtQ1fctvprKBdRaYWfoFBaRCz/fE4v0btPD3vzN+c1qJqckiZOkkLQTWkbYL5JGzQnD97mfiL5QULuZAQCVSA+qasPGX10026wEXkyaQa+W18Nd/+XSRluH6pI+c1Nn4aNH2xz7i3sBa0vaBvDDZrStOxZ0vLVzMgYBKpAbUdCY21q/6IFsrM1f+QAEoHVBTtJ3RR0Rdic0+uzevpd9359kj4l9DP5MeA8ijS/Y5gyoLF/MgoBKpATXtOnP0tns6W8PMXPcXBeDN4e3Frsgjufre3/VK/z7gr/s3cBQQBSXr8dDGdYSLeRBQidSAmnafO3qfyWbRv/9nnCyBXHk4tLH4I2KbKMhyOB2i77JpXCkEBeKxXs0GChfzIKASqQE1aQGwsslm3W2cKIHc0I/S9fl9SoEc+bu29I+Cz12OEa3DQ7OXlTE+LpAbj/VuukS4mAcBlUgNqGnPuaNPaxNjvHGiBHLj/ak9ROTlaFEYpV87eP3xveKVwR9LjwvkhvYPlWO9F08qLlzMhYAqpAbU9ETvxhYzy78gH/41rL3YeGJfgR/9u7b0j4Knb10qKgY3kB4fyCmTzRLTamrwA8LFXAioQmpATfcG1v7QOEkCOVUppKGYtmVJdkAr7MrIzBRfzRkqjQHIKZPdGt8iPOQF4WIuBFQhNaCmst1r2Y2TJJBTHX4emL1wc1HVkegz4u0RHaRxADljSWgVHlxTuJgLAVVIDajpvqBa38mTJHBzz/ZvI47HnhNFWZmOTDFr1x/i4bDG0niAm7MkagGwuXAxFwKqkBpQU9nutcfKkyRwYw+HNhLz9qwuko9+jXU1LUUEL5kgynGpOOSWzZLcalrIJ8LFXAioQmpATWWDak+WJkngBrTXjPh2wUgRl3RFuKuOxUSKGmO+kcYG3FB2AAzuKFzMhYAqpAbUdF9QnenSJAncwBtDPxN7zh3N16Xe8lv6Y/92cFP2peeM4wNuIKXV9JBOwsVcCKhCakBNBEDkxgM96omfd67IXpvP3aWfFfzNvGGEQOQGARDKkxpQEwEQudH2xz4i0w3f+3NV+lHAiItnxLsjv5DGCVwHARDKkxpQEwEQOfXP7z4QO84cFp5U6ZkZYsrmXzkrGDlFAITypAbURABETmivEzF01UyRmpEmPK1iky6LNtPDhD/XCsbNEQChPKkBNREAcTOltWDVMjy40K71WxC1N+qYeLpfK2nsgAEBEMqTGlATARA381ivpmLpwU3C02vA8unS2AEDAiCUJzWgJgIgbuaL2YNFigd+9Gus03HnuUwcboYACOVJDaiJAIgbebJP8+xg5Q3lcDjE7F0rRaWQhtLvAfwXARDKkxpQEwEQ11Ouex0xau0ckeHIFAVdaRnphbLd6MR48dnM/qwNiOshAEJ5UgNqIgDieuqO/1Ycj40slCt+nI2/KGKuXja28136WFdEbBNV+7aQfh/ATAAECID4EwEQrlQObSSmblksMh2Fs+jzppP7RMTF08Z2gVRaZrroPH+49DsBZgIgQADEnwiAMPK31xAf/NBLXEm5KgqrZu9cKTYc32tsF1hdSIgTj/dqJv1uUB4BEMqTGlATARBGFXrWF2uO7hKFWcNX/ywW7V9vbBdYObOyRP/l07PDrPH3g9IIgFCe1ICaCIAwah0emn2JtcIs24LRYtqWJcZ2gZX+XcCDF06Jf4/4XPr9oDQCIJQnNaAmAiCu9UhYE7HjbIQo7Go5NVgMWfmTsV2gle7IFOPWzxfle9STfk8oiwAI5UkNqIkAiL/ol3wL/GWsSExNEoVd/x7eQQT9Os7YLvA6GRsl6o7vKv2uUBYBEMqTGlATARB/eWHgh2Ld8d2FsuzLteVwOkSVPs1Fx1mDhNPpNP64QEvf/vcbFogHetSVfl8oiQAI5UkNqIkACF2ZwFqiy/wRIjk9RRR2XUq6kr3MzAfTw0RSarLxxwVe8ckJ4o2hn0m/M5REAITypAbURACE7p8D2ohdkYX/3T+9Dl04KSoGNxCNJgWI8wmXjD8ulJq5Y7kow9VBQAAECID4EwEQuq/nDiu0RZ+Nte74HlGh53ui5tjO4mhMpPHHhVIXE+LEf0Z0lH5vKIcACOVJDaiJAAj9mr/7zh0XRVXz96wRD/Sol30iyO7Io8YfF0rpy9qMXT9P3BtYS/r9oRQCIJQnNaAmAiA6zh4kUjPSRVHV+A0LxH1BtcWLAz/KPhpYFKWf2KJfeq7m2G+k3x9KIQBCeVIDaiIAqu2J3u8XyZm/11bv36dkH4nTH3vJwU3GHxdaZTgyxdBVM7OPPhqfByiDAAjlSQ2oiQCots9//k7EXr0sirK+mTdc+AfUEA8G1xezd600/rhQ68jFM+L1IZ9KzwOUQQCE8qQG1EQAVNfjvZqKObtXCWdW4a7Fd23pRxrbTA/LfvzSATXFlM2Li/Too8PpFCFLJknPBZRBAITypAbURABUV5PJQeJSUoIoykpMTRYNJtj+fwxDVv0k0jMzjTcr1DobfzH7LGTj8wElEAChPKkBNREA1XRfYG0xdfNiUdQVdSU2e/mXv8YRvGSCSEpLNd6s0KvdjL7ScwIlEAChPKkBNREA1fRMv9bZV+Qo6tLPxL12Pb6v5g4Rl5MTjTcr9FpxeJso34OjgAoiAEJ5UgNqIgCqaeCKH4r0u3d/1dZTB8Qrgz7+/3G0nBaSvUhzUdcF7THbTA+Vnhf4PAIglCc1oCYCoHqe7NNcHL54WrijlkdsE8/0b/3/Y6k1touIjI823qzQSz8ZJHzLUlExuL70/MCnEQChPKkBNREA1fPFrEHiSspV4Y6at2e1eKxX0/8fi74ky4nYKOPNiqQOXTgl3h35pfT8wKcRAKE8qQE1EQDV8lBwwyJf+uXamrplyd/OwH2iT3MRcfGM8WZFUvrC0LaFY0SZgJrS8wSfRQCE8qQG1EQAVEuDiXZxKu68cEfp3zkcsWZW9vp/f42nbFAdsffcMeNNi6y2nD4oHg1rIj1P8FkEQChPakBNBEB1lOteVwxY8YPIdDiEOyojM1P0/m2KNK6iuh6wq0rPzBDvXbMuIXweARDKkxpQEwFQHU/1aym2njko3FX6ItBdF4yUxjV392rjTYu0wrculcYEn0UAhPKkBtREAFTH+1N6uO3on14xifHik5/6SeMavW6u8aZFWlFXYsSTfVtI44JPIgBCeVIDaiIAqmP2rpXCnXU2Plo0ndxdGlfwkonGmxZpJaWliM7zhkvjgk8iAEJ5UgNqIgCq4dFeTUV0YtEvuHxtHYuJFNYxX0tj+/zngcabFmk5nU4xf88a8WBP1gRUAAEQypMaUBMBUA2f//xd9gkP7qz950+IVwa3k8bWcGKA8aZFXocvnHYZTuFzCIBQntSAmgiAvq9c9zpiycFNwumGS79dWzvOHBaP924mje+1IZ8Yb1rklZaZLoJ+Hf+3JWrgkwiAUJ7UgJoIgL7v7REdRYSbLv12bW04sS87jBrH90hYE+NN3VLGq5TAJxEAoTypATURAH3fN3OHu+3Sb3+Vvgj00oObpbHpygXVyT4Rw911Jv6CeGPoZ9L44FMIgFCe1ICaCIC+rXJII/HT9mXZAcyd5XA6RfiWJdL4dGUDa4lTbroe8LWlf0TeZd4IaXzwKQRAKE9qQE0EQN/21rDPs0++cHdlOh1i4B8/SuPT3asFwC2nDhjv4pZacXibND74FAIglCc1oCYCoG9rEx4mUtLThLsrw5EpbAtHS+PTlQmsKRbtW2+8i1sqITVJVAxuII0RPoMACOVJDaiJAOi77guqLUavde9VNv4qfQmaj37sLY1RVzqghpi8eZHxLm6rZlPkxarhMwiAUJ7UgJoIgL7roeAG4rAHnP2rl77MSs2xnaUx6vztNUTfZdOMd3FbTbvOdxXhEwiAUJ7UgJoIgL7r9SGfZn/06gmVmpEuXhrUVhqjzl/zzbzhxru4rXaejRCVQxtJ44RPIABCeVIDaiIA+q4u80cIT6mUjDTxUHBDaYx/aRUeYryL2+pM3AVRe1wXaYzwCQRAKE9qQE0EQN/164ENwlMqLilBGt+1ao3rLNIz0413c0slpiaLwEXjpDHCJxAAoTypATURAH2T/hHm8dhzwlNK/y6icYzXenfklyI6Md54N7eUM8sppm5ZIu7vXlcaJ7weARDKkxpQEwHQN9Ua21lcTIwTnlJrj+2WxnitN4Z9Jo7FnDXezW31R8R28Wz/NtI44fUIgFCe1ICaCIC+qfO8ESIxNUl4Ss3ZtUoa47X0E0R2nDlsvJvb6kj0GVF9dCdpnPB6BEAoT2pATQRA3zRu/XyPOQNYr5FrZktjvNbT/VqK5RFbjXdzW11NSxYtpwVL44TXIwBCeVIDaiIA+p7yPeqJBXvXuv36v9dWj8XfS+O81mO9moq5u1cZ7+a20p+7b+ePzF6k2jhWeDUCIJQnNaAmAqDveW5AG7Hu+G7hSdV+5gBpnNfSL782ZdOvxru5tfSrqNzfgxNBfAwBEMqTGlATAdD3WEZ/LQ5dOC08qep9300a57XKBtYSg1f+ZLybW2v54a2iEgtC+xoCIJQnNaAmAqDvaTGtp7iY4DlnAKdnZoq3hn0ujdMoeMlE4XA6jXd3W+kngjzeq5k0Tng1AiCUJzWgJgKg7+kwa6BIzUgTnlIxifHilUHtpHEafTN/hEhKSzHe3W2VmJYsnu7bUhonvBoBEMqTGlATAdC3lAmoKXou/t6jTgDRj6T987sPpLEatZvRT8RevWy8u9tKfw7fHtFRGie8GgEQypMaUBMB0LdU6PmeGLt+nvCk2nRyn6iagyNpTSYHibNxF413d2u1/bGPNE54NQIglCc1oCYCoG95OLSxmLNrpfCkWnpwk3i8982/S1dj7DfZRws9qW62fA28DgEQypMaUBMB0Lc80ft9sSJim/CkmrF9magc0lAaq9G/hn4m9pw7ary7W2vk2jnSOOHVCIBQntSAmgiAvuWZ/q3FrrMRwpNq5NrZ4oEe9aSxGj3Vr6XYfHK/8e5urTm7V0rjhFcjAEJ5UgNqIgD6lhcGfiROXooSnlRhSyeLewNrSWM1erBnfbHqyA7j3d1aa4/tlsYJr0YAhPKkBtREAPQtrwxuJ2KTPOdMWqfTKbrMHyGN0xX9smuL92/wqDOYD0SdkMYJr0YAhPKkBtREAPQtrw/5VCSnpwpPqaS0ZPHpT/2lcV5P+NYlwuF0GDfjtjoTf1EaI7waARDKkxpQEwHQt7w9ooPwpNKvSKJfmcQ4zusZvHKGSM/MMG7GbXVBG/99QbWlccJrEQChPKkBNREAfUutcZ2FJ9WJ2HOi3vddpXFeT8AvY0WKB13FJDoxXlTmesC+hAAI5UkNqIkA6FsaTQwQnlT7o46Ld0Z+KY3zej75qZ9ISvecy8HFXI0XVfo0l8YJr0UAhPKkBtREAPQt+tU0PKk2nzogXh70sTTO66k/wSYSUpOMm3Fb6Zeme7Z/a2mc8FoEQChPakBNBEDf4mkB8I+I7eLJXBxB0xeDvpycaNyM2yo26Yp4bkAbaZzwWgRAKE9qQE0EQN/iaQFw0b714sHgBtI4r+eJ3s3FJS10eUoRAH0OARDKkxpQEwHQtzSeFCg8pfT1/GbuXCFK22tI47wefcHomMR446bcVjF8BOxrCIBQntSAmgiAvqXO+G+Fp1SGI1OMWTtXGuPNHLxw0rgpt5V+EsijvZpIY4TXIgBCeVIDaiIA+pZqo74SnlIp6Wmi929TpDHezJqjO42bcltdTIwTD4Xk/CNseDwCIJQnNaAmAqBveXNYe4+5kkZiapLonMPLwF1r9q6Vxk25rfSFoMsG1ZHGCK9FAITypAbURAD0La8N/kTEe8hZtHFJCeKDH3pJY7yZkWtmGzfltjoRGyWND16NAAjlSQ2oiQDoW14c+JE4HXdBeELpH5/WHf+tNMab6b54vHFTbqttpw9J44NXIwBCeVIDaiIA+pbn+rcR+6KOC0+oc5djstf1M47xZj6dOcC4KbfV74e2SOODVyMAQnlSA2oiAPoWfdHl1R5yEoV+JDIvl1F7b4LNuCm31bQti6XxwasRAKE8qQE1EQB9S+XQRmLmjhXCE+pI9FlRNrCWNMabeXVwO+HMcho355YKWzpJGh+8GgEQypMaUBMB0Lc80KOeGLF6lvCE2nb6oDS+nNAXXvaU6wF/8lM/aXzwagRAKE9qQE0EQN9SOqCGCFw0TjizsoS7a8nBTdL4cqJq3xbiVNx54+bcUtVHfyWND16NAAjlSQ2oiQDoez76obeIT04Q7q5Jm36RxpYTj/VqJrafOWTcXJGXvozNU31bSuODVyMAQnlSA2oiAPqeOuO7iGMxkcLd1W9ZuDS2nHg4tLFYdniLcXNFXtvPHBaPhnEZOB9DAITypAbURAD0PS8Nais2ndwv3F3fzB0mjS0nKgY3ED/tXG7cXJHXzzv/EA8G15fGB69GAITypAbURAD0PQ/0eE/M37NGZLn5e4AtpgZLY8sJ/USWUWvnGDdXpKU/dz2XTBD35uEsZng0AiCUJzWgJgKgb+q3PFykZqQJd9Y7I76QxpUTZQNri5AlE42bK9LSz0J+f2pPaWzwegRAKE9qQE0EQN/UOjxUxCVdEe4q/QhaXk+g8Nd8NWeIW49g7j9/QvxnREdpbPB6BEAoT2pATQRA3/R0v1biTLz7rgl8NS1ZVA5pJI0rpz76sbdIy0g3brbIatH+9dlnIxvHBa9HAITypAbURAD0XUsPbBLuqhOxUeLBnnk/gaLJ5O4i5upl42aLpFK14Nl/+XRpTPAJBEAoT2pATQRA3/Xt/JHCXbX19AFRocd70phyqvb4LuLUpSjjZoukzl+JFc2mdJfGBJ9AAITypAbURAD0XS8N/Egku+lEkCUHNor7e9SVxpRT74z8QuyPOm7cbJHU7nNH+fjXdxEAoTypATURAH1X+Z7vibXHdgl31LQtS0S57nWkMeXUK4M/dttahuPWz5fGA59BAITypAbURAD0XaUDamZ/DJzhyBRFXQP/+DFfa+hV7dvSLVcDyXQ4so8+GscDn0EAhPKkBtREAPRtepg5Gn1WFHXZFo7WAmgNaTw5VSmkkZi3Z7Vxs4Ve+6NOiDJacDaOBz6DAAjlSQ2oiQDo2yqFNhIzti8r8jX1Pv6xrzSW3LgvqLYI37rUuNlCr9Clk6SxwKcQAKE8qQE1EQB934c/9hYXEy6Joip9/b7GkwKkceTWqDVzhMPpMG6+0OpYTKR4fein0jjgUwiAUJ7UgJoIgL7v0V5NxaqjO4vsKGBMYryoNa6LNI7c6vXbFJFSRGcxZ2pBc8y6uaJCPtYuhFcgAEJ5UgNqIgCq4et5w0R6EZ0Mcjw2skBOpOgyf4S4knrVuPlCqdNxF0STyUHSGOBzCIBQntSAmgiAatCPbB0popNBdkUeKZCPUtv+2EfEFsHVQBwOh5i18w9RPh8LV8NrEAChPKkBNREA1fHl7MEiLTNDFHbpHzc/N6CN9Pi5Vf97mzh3Oca4+QKvi4lxoubYb6THh08iAEJ5UgNqIgCqo2rfFmLdsd2isOuXfevEE73flx4/t/49vGORXA7ux22/Z6+ZaHx8+CQCIJQnNaAmAqA69PXtvpg9SMQnJ4rCLD1QPRTSUHr83HqufxtxNPqMcfMFWrFXr2hBs4P02PBZBEAoT2pATQRAtVQObSRm7lguMgvphBD9TOPR6+aIsoG1pcfOrQo93yvU6wGnZaaLsKWTs9ccND42fBYBEMqTGlATAVA91tFfixOF9NGqfim1/svDpcfMC3/NllMHjA9RIOXMcoo1R3eJFwd+JD0ufBoBEMqTGlATAVA9+kfBwUsmiMKo5PQUEfDLWOkx82rx/g3GhyiQ0k/8+HhGXy77ph4CIJQnNaAmAqCaHg5tnH0EzFnAi0PHJSWIDrMGSo+XV5M3LTI+RL5L/53HrZ8nynWvIz0efB4BEMqTGlATAVBd1Ud/JQ5dOFWgVwiJuhIjmk8Nlh4rr/osm2p8iHzX9jOHueKHugiAUJ7UgJoIgOrST374Zt7wAl1s+UTsOVF73LfSY+VVp7lDjQ+RrzoZGyUaTLBLjwNlEAChPKkBNREA1VYxuIEYu35+9skbBVH6EcU3h7WXHievWkwNNj5Enis+OUEE/DJGlAvio1+FEQChPKkBNREA8UD3emLZoa3C4cx/CNx5NkI81a+l9Bh59faIjsaHyFMlp6WKQStniPu715UeA0ohAEJ5UgNqIgBC99KgtmL98T1aCHSK/NSmk/vEg8EF9/26J/u0MD5Ersup/U4ztv+efbTTuH0ohwAI5UkNqIkACF3pgBqi9rguYtfZI9lr5OWl9JNJ/ojYJvy1bRm3n1f6x7UZ+Vi0Wh/Tb4e2FMi1ieETCIBQntSAmgiA+Iu+Jl7d8d+KozFn8nRmsH6kbebOFdJ28+PewFrifMIl40PdtPTx60cz/4jYLl4f+ln2otLGbUNJBEAoT2pATQRAGFUb9ZWIuJj7EJjpdIgRa2ZJ28sPPZTuiTxqfKiblh5G9UWkXxn8sbRNKI0ACOVJDaiJAAgjf3sN0WhSQPYJHXqQymnpH9X2WPy9tL380APg8sNbjQ91w9LHvCJim/jngA+k7UF5BEAoT2pATQRAuKJ/9FprXGex4+zhHF8tJD0zQ3z+83fStvJD/27ijO3LjA913dKXs1m4b614dXA7aVuAmQAIEADxJwIgbqRKn+ZiecRWkZqRLm5W+m0aTCzYRZb1o5FDVv1kfCiXdTklUYxcM1s8EtZE2g7wXwRAKE9qQE0EQNyMHgK/37BQXEq6Im5UKRlp4o0CXARap5+8Yf9ljPGhpIq8HJ398TPr/OEmCIBQntSAmgiAyAn9qFrn+SPE2fhocb1KTk8VT/R+X7pvfn08o6/xof6/9DN99Y+pP/yhV/al7Yz3BQwIgFCe1ICaCIDIqbJawHpn1Bdi+5lDIt2RIZ0lnJiaLMoE1pTul1/1vu8mnYyiP3ZqRpr4acey7EWsC+Nx4ZMIgFCe1ICaCIDIrcd7NRODV84Qpy6d/9sJIidjz0m3LQjVRn8pLicn/v/j6CebHDh/UtgWjhGl7QW36DSUQACE8qQG1EQARF6U615HNJoUKH4/tCU7kOm15dQB6XYF4c1h7cXpuAvZj5GQmiSmbPpVvDvyy+wlYoy3BW6CAAjlSQ2oiQCI/Himf2sRtGhc9tHAX/atl35eEF4Z9LHYe+6Y2B15RHwwPUw8HNpYug2QQwRAKE9qQE0EQOSXvlbfk31biC9mDxJVtf+WLsAjc2UDa4nqo78SH/zQSwt+jbikG/KLAAjlSQ2oiQCIghL222Sx7vie7DNyKwY3kH6eW3qY7LpglNh6+qBoPq2n9HMgDwiAUJ7UgJoIgCgovX+fmn1SSNSVWDF58yLx7IDW0m1yQv9uX93x34qFe9dmn1msb48AiAJCAITypAbURABEQdED4F+lXxd4X9Tx7KOB5Xu8J93WFf2qHxVDGmRv53zCJZHpdGRviwCIAkQAhPKkBtREAERBuTYA/lX64tAzd6wQltFfZX9X0Hifv1To+Z54f0oPse74buH4b/D7qwiAKEAEQChPakBNBEAUFFcBUC990eYD50+Ir+cOc3md3qf7tRKj1s7OvpybcXFpvQiAKEAEQChPakBNZYNqT3QxSQK5dr0AqJce7OKTE8Xc3avEm8M+z769fvWOJpODxLpju0Taf9cSdFUEQBSg5FbhIR2Ei7kQUIXUgJrKdq89ysUkCeTajQLgX+XMcoq45ATRb9k0MXXzryIxNcnlUb9riwCIApSkBcC2wsVcCKhCakBN93Wv1dfFJAnkWk4CYF6KAIgCdLVVeGgz4WIuBFQhNaCmskG1uriYJIFcIwDC81mutAoPtggXcyGgCqkBNd0bUKu5PEkCuUcAhOezxLcKD3lWuJgLAVVIDaipzgTbG9rEmClPlEDuEADh6Ux2a3TzH3qVES7mQkAVUgNq2nPu6JPaxHjBOFECuUUAhKcr3/O9Q7MPbComXMyFgCqkBtSkBcCHtIlxq3GiBHKLAAhP91jvZvOFi3kQUInUgJq0AOhvtlvCjRMlkFsEQHi6x3o1DRIu5kFAJVIDatp17uQtdwU2smuTo8M4WQK5QQCEh3NW6dviHeFiHgRUIjWgpkvJyX6fzB7TxGy3xLqYMIEcIwDCw12YsuXXh4SLeRBQidSAuiZuXPis2WbZ7mLCBHKMAAhPZrJZ55+6dN4kXMyBgEqkBtS17PDm26v2bTHNzMfAyAcCIDxY5p0fvPbVyQuRtwgXcyCgEqkBtX02c0B7s82a4GLiBHKkV2EGwKkEQOTL6dahnf4THx8vzX2AaqQG1PbZzP6VzTbLWRcTJ5AjQYvGi8Kos/EXRaNJAdLjATllslt+mb175f3CxdwHqEZqQG0Zjky/fw74YLxx4gRyKuCXsaIwSg+ADSbapccDcsJksyZ0mT/iK4fTKc17gIqkBvD0oHZvaRNminECBXKCAAhPpAXAA90Wja4iXMx5gIqkBjB99+p7tAlzmXECBXKCAAhP9NyANkN2nosoLlzMeYCKpAZwKelK8Yq9G7XQJs0k4yQK3AwBEB4oueHkro8IF/MdoCqpAeiWHtxY3hxgmadNnE4XkylwXQRAeBh9DhuR4cgsJlzMdYCqpAagO34psljdCV1ammzWiy4mVOC6CIDwMBGd5w97iZM/gL+TGsBfgpZPN90dUHOBmaOAyIXXh3wiOs0dWuA+ntFXPNmnhfR4wA2kmwOtvTed2neHcX4DVCc1gL9kOh1+X84ZUkWbRKNdTKzAdfkXEuPjADfgfCi44fIfti2t5Mzi6B9gJDUAo/u61+6uTaZpLiZYAPBQlkutp4c0MM5nAP4kNQCjIat/qlDKZvlFm1Sz5EkWADzPQyENh204sec243wG4E9SAzBKy8woNmDFD2+bbJa9ZkIgAM/mNNusazafOlDBOJcB+B+pAbiydP+GYo+FNW1hslnPu5hwAcATOE12y953RnR6I+bqZWkeA/A/UgO4nqUHN5esHNo4UJtkM1xMvADgVia79bxl7NctDl88fatx/gLwd1IDuJFVR3aYtYl2osZhnHwBwJ1eHtzuq+Ox5/5hnLcAyKQGcCNZWVl+a4/tLvtE7/fHaRNuipnvBAJwO8uVFwe27Z6akc61foEckhpATvx2cHPFqn1bjjfb+DgYgFvF1hj7dcjJS+dNxnkKwPVJDSCnVh/dWa5sYK1JZj4OBuAeV6uN+tIWcfG0v3F+AnBjUgPIjZVHtpd9sOd7/U02a7yZj4MBFA2n2W6JfXlwu0+jE+P4zh+QB1IDyK0Vh7ff/nSf1u3MNmuEi4kaAApShslm2fLOyA61Y69eLmGcjwDkjNQA8mL5oS3F+y0Lr6n9q3y1NkFnupi0ASC/HKU+f2vau11avhRx8TQnfAD5IDWAvMpwZBYbtnpWFZPNOlqbqBNdTN4AkDc26yWTvXrPdYd2lD127Jg0/wDIHakB5Iczy+k3aszo4m8Ftvq3f0CNDdrEfdXMdwMB5JHJbr1UKbTRz68N/Pj5HacPFdeXojLOOwByT2oABSVw8YT7633fLUj7l/sulosBkEspZrtlY4dZgz6dvu33u4zzC4D8kRpAQToRe+626p+//0KpDv8eYuZjYQA3l2WyWc/cGVC9x7eLRlVNTk/lu35AIZAaQEGLjo722x957M4nQ5u9U77ne0tNdmuCiY+FAfydQ7+iR6XQhjPrTuz6+Im4qNuvpqdI8wmAgiE1gMI0Z8+qO1uGh7QsHVBzkzbhJ7vYCQBQjMlmvfJknxYLW4UH1z4Wc7akcd4AUPCkBlAUgpeGP35nYPMQ7V/8+tqBXEkEUFOm2WbdUS6oUcclBzaVM84TAAqP1ACKQlJ6ut+6U0fvaDYx8EVTt+pcTg5Qi/4VkDhNv4F//PjMllOHbzHOEQAKl9QAilKm0+F3OfnqLe+O+OLdKr2b698PvMz3AwGf5TDbrNH3tHtjzlezBz+a7sgsri8dZZwXABQ+qQG4y/LDW8s80avZZyabRf9+IMvGAL4lWQt/i+qM7dL86+7d7jC+/wEULakBuNPKiG3Fhq+e9ew93ax9tZ1FpJmjgYAPsEQ8Etb0yzm7Vj50LPpsMeP7HkDRkxqAu6VnZvqdunT+H53mDH3+0bCmM7SdR6LGKe9UAHgwp8leI+r+ng2G/Ljt9yqRl6NvNb7XAbiP1AA8SWpGWvGaYzs18e9W7XeT3XrFzBFBwNNlmWyWaH+7dV7z6d+9NG33bul9DcD9pAbgac5eOu83cuWMiq8M+egLs92yx8UOB4AnsFnTzfbqK1pO6/nByDWz/I3vZQCeQ2oAnurQxZO3zNr1x7PajmaEyW6Jl3Y+ANwp+sk+zb/deHLvQ+cTYksY378APIvUADxZVlaW34LDh4q/MabH8/d3r/ezttO5ZOZjYcA9bBanyWY5/XivZiNfHft55eir8ZzgAXgJqQF4i+Gr5tzeKjykrcluWaHtjJKknROAwhRf2lZjXrcFI6st3r+BEzwALyM1AG9yMTGu+OzdKx95a/jnX5tsllMudlIAClamyWbd0nH2oI/n7V59v/E9CcA7SA3AG0UnxpesOvyDKhWDG3yv7ZyizVxaDihoGWab5fzjvZoGfjN/wAOJqclcvg3wYlID8Gbrju65peXU0LcfCm4422S3cqIIkH9ZZpv1zEuD2o5rEx7yTEJqEt/zA3yA1AB8wYzty/y/njfsc5PNsl7bgaW72KkBuLkUU9dqi6q2qFZ744l9dxnfZwC8l9QAfMWVlKu3dFgw+tG7AmsFmTkaCOSGfuWdiNLdrJ/9uOW3Cnv37pXeXwC8m9QAfInD6fTLcGQWazy528PPDWgz2WS3Rpn5fiBwPRn6si5vDe8Q3HdZeGn9vaMvvWR8XwHwflID8FU7z0bc8UrnpvVKffX2HG1Hl+xi5weoKstst1y4O6DhxKZT+7yZlJZS3Pj+AeBbpAbgy7Zt2+b304YlD9wbVKvjfy8rp3/UZdwZAipxmuyWVa8P+aTuz3s2+59LSJDeNwB8j9QAfJ3+kdaZ+Iu3fLdi+sNP9G4W5m+3XtB2gpkudoyAL0u/v3vdg1V6N++4+ujO+y8mxnF2L6AQqQGo5qMf+r1wd0DDH8x/fj+QI4LwdQ6TzXqiXGDtAd9vWFDR+H4AoAapAajmcmqq3+B1y001xnzd1GSr/ou+g3Sx0wS8nX7N7PhSduu0L2YPqTFp/UIu3wYoTGoAqjp5KarYuuO7y/vbq3U227msHHzO3neGf/nexpP7y8QnJ/JxL6A4qQGoTP9+YKbDUeyn7csqVAxr0N9kt54yc0QQXsuS5m+37PnngNZfH4uJvNvhdEiveQBqkhoA/jRx5+Jin88aVK1Ut2ozzTZLjPnPj9Bc7GQBT2Q5+3Bow8FBv456eseZ/RzxA/A3UgPA/ySlpfjN2fVH2SYTg1poIXCNvJMFPE6SZk7o0kl1lh/ecofxNQ0AOqkBQBafnFDi5KXzZR4ObRJgtltOaDLMHBGE59Bfi6lmm3XvIx1qNeo5sE+plIw0jvoBuC6pAeD6jsWc9vt4RnCVqn2aD9dC4EkXO2KgSJmyL99m3f32iI49Pp/Rv4zxNQsArkgNADe39MDG23r9PrmO2VZ9nrYTTjDulIEicumx3u8PHbF69ssHzp9kWRcAOSY1AORMWmZ6sT6Thpe7471nPzDZrQdc7JyBwpJhtlv+uK1dvdobTxy4x/jaBICbkRoAcs7pdOrLxvh9taD/P14d3C7UZLMc1XbM6S522ED+2azJZQJq7nx3xBdNp25adJv+2tOXLjK+LgHgZqQGgLw5felCCfvCMS+/MPCjUSab9by08wbyyGS3ZmoONphg7xW2ZHJl42sPAHJLagDIn82nDtxzf6eWdbUd9+8ajgYiv1Lv6VZtbI1RnV47FXf+H8bXGwDkhdQAkH+Rly4V+2H7srJP9GnRtmxgrX1mmzXNxY4duJ4sk9169cGe9Vc+1rdFrYjoM3ddunpZep0BQF5JDQAFq9dvk+6tO77rIC0EHjFnf3lf2tkD10orG1h7a+vpYZ8u2LuWEzwAFAqpAaDgXUi4dFvT8LC37w6oOV7bwV92sdMHnNo/Ek6W6fpOv/6/T3vG+BoCgIIkNQAUjnMJcX6bTh30fyS0WT2TzbrNzJVE8DeWma2m93x9y8m9d6akp0mvHwAoSFIDQOFyOJ1+q4/uuuexbvU/M3V+d7vZxokiitK/55dwT4d///Fy3zZ1ktNTSziznNLrBQAKg9QAUDQWLlzoZ5s++LF7u7473GSznjDrHwHKIQG+yWG2W7b/c1DrTl2Ght1/5MgR6fUBAIVJagAoWr/s+uPODrMGWcw26w9aMEh1ERbgUywXTd0sQ8aun/fCptN7ihtfDwBQFKQGgKKXmJpc7Gz8xXveGvF5/VL2Wju1oJBi5juCvkQ/uptY2lZ7XteFo1/V/tZ3ZDgypdcBABQVqQHAfeJTUvyazpx078uDP+6mBQb9RBGHizAB76GH+KumbpaVtcd92+bb6eEljH9zAHAHqQHA/Tac2ldi1Lo5//QPqDlSCxBcVs5b2SwHXx/ySZeRq2c9HBkfXcz4dwYAd5EaADzHltMH7wlaNM5qtlt+07CItJcw2a2Jmonz96x5/kj06ZLGvysAuJvUAOBZsrKy/HqsmlT8zZEdmpjslu1awLhq5vuBnijLbLPGP9Cj7rx/j+38ypKjO4vrfzvj3xMAPIHUAOCZEtOS/eyLxlR+Z+QXPbSwsTc7cMghBO6RYrJZ1n44vdfnI1bPudP4twMATyM1AHi2/eeP3zZvz+oXywTUnKgFjwQXYQRFynLu3VFf2ObtXv1EzNXLnOQBwCtIDQDe4Y+InXdXDm1heaBH3WVaEEk0c0SwKDm14BdbKbTRtHcGtqkae/Uy3/MD4FWkBgDv8v3GBXe0mNbzU7N+fWGbNdlFWEEBMtktCZVCGs7/4MdQ6+ZTewl+ALyS1ADgfVIy0op1GBv21F3NXgzVQuBxM0cDC0OGFv623m554quZ25eVMf4NAMCbSA0A3ikuLs5v074dd1Qb1vEFLQTO1QJLposQg7xJMNtqhHVbMOaJjdu33MrZvQC8ndQA4N2cWjg5Gn32lmqjO1kfCWvym8lmueIi0ODmHCa79cILAz+a3nRq0OPOLGf2kjzG5xsAvJHUAOA7Zu/6494Hen3ayWy36NcXZiHpnEsrZbfMf31U+8Z7zh27y/i8AoC3kxoAfMuSoxElQhZPeMHUtXp/k90abeb7gTeiPzcHS9lrfj1nz6oKu84flZ5PAPAFUgOA70lJT/OLjI/+R6tpoc89FtZ0kRYEE0zZS5lIAUhVjtIBNc9X7dNiwPBVMx+NvBzN9/wA+DSpAcC3nY2/ePubw9q/f0+3ar+b/7ysnDEMqUQPwRfvDqj182c/f/eq8bkCAF8lNQD4vj2RR/1GrP650iOhTbuYbdZDZjU/Fs4q1c26pNbYLi2GbVjon5CWIj1PAOCrpAYAdew5d6zkqLVzXjTZLOPMal1W7pzJXj1gy6mDFU7HXShufF4AwNdJDQBq0b/rpi8dY/9l9PP32qv/arJbL5l984ig02yznHoktMHgubtXVdR/Z+NzAQCqkBoA1NXn17Gl6k+0fWK2W1ZqgSnNRYjyVpfMNuvsTnOGWmdvXcIRPwDKkxoA1HYqLqrE/L2rH6var2U3k90S5SJMeQ1t/Fmaje9P7dl6/p615fSzoY2/LwCoSGoAgO547IWSlQYGPvtgcP1JZpv1otl7lo3RP77O0MZ86tFeTXrW/mFymSspV0sYfz8AUJnUAIBrLdiz/pYPf+hT7d7Amou0YBX734BlDF2eQhub5fhT/VqO/OiHvk8fj4kqZvx9AAAEQAA5NGHjgnvb/tjnIy1gLdGkuAhf7qQHP/0qJ9P6Lw+3/n5oy+3G8QMA/kdqAMD1xFyNL7H19MHyzw74oKEWttZoMl2EsaKWZrJbx7Wb2f9tbWz+6ZkZ0rgBAH8nNQDgZvSlY7afOXRLtdFfPW8Z3WlgmcCau7UgFmO2FUEgtGWfnRz5SFiTVdVHd+pmGdfpQX08XLoNAHJOagBAbvVaNqVi0K/jWv5raPvBJpt1mRbQTmvSpfCWd8la8NunbXte86nBYdpj1fh514pSxnEAAHJGagBAXu2KPFpy/t61lRbsXftW2xl9Wpnslr5aeJtrslv3av+NM+fsTOIMzUXtPhu1/04rZa8eNGz1zIbaNl/Utl0u6kosZ/QCQD5JDQAoCAmpScXOXY65XXOPpozm/kZTAh6p0rfFW1X7taxbtW+LppqWf2rZqGq/FrWf6tvqxX7Lwx/SbltO46+569zl6JJ8rw8ACpbUAAAAgG+TGgAAAPBtUgMAAAC+7f8ABIzMYp/8JlMAAAAASUVORK5CYII=;clipPath=inset(0% 28.67% 0% 19%);movable=1;resizable=1;rotatable=1;deletable=1;editable=1;locked=0;connectable=1;" parent="dhW7Y5vE-Pte1g8_rLPb-3" vertex="1">
          <mxGeometry y="3.0900000000000034" width="50" height="53.82" as="geometry" />
        </mxCell>
        <mxCell id="dhW7Y5vE-Pte1g8_rLPb-4" value="" style="group" parent="1" vertex="1" connectable="0">
          <mxGeometry x="280" y="340" width="200" height="60.620000000000005" as="geometry" />
        </mxCell>
        <mxCell id="bkZSs18tM1RNsjHw4RB3-33" value="&lt;div&gt;Spark&lt;/div&gt;&lt;div&gt;&lt;i&gt;Dataproc&lt;/i&gt;&lt;/div&gt;" style="rounded=1;whiteSpace=wrap;html=1;" parent="dhW7Y5vE-Pte1g8_rLPb-4" vertex="1">
          <mxGeometry x="30" y="0.6200000000000045" width="170" height="60" as="geometry" />
        </mxCell>
        <mxCell id="bkZSs18tM1RNsjHw4RB3-32" value="" style="shape=image;verticalLabelPosition=bottom;labelBackgroundColor=default;verticalAlign=top;aspect=fixed;imageAspect=0;image=data:image/png,iVBORw0KGgoAAAANSUhEUgAAAQAAAAEACAYAAABccqhmAAAclElEQVR4nOydf2yV13nHn/dejG2uwSaU2FYYNq2TDqmt7U6JRhNEwEpa6NowEqop7QY4q7aVhdCiNctt1zp4uaiVUjlEqbSqxeGPRBMkNF3bkP1wCD9KplaLTVcNLaHDpNIwyQi240tsjO3pHM41L9f3x/ue95z3/Ho+Esqm+r73gN/zPc95vs95zryZmRlAEMRNEqoHgCCIOlAAEMRhUAAQxGFQABDEYVAAEMRhUAAQxGFQABDEYVAAEMRhUAAQxGFQABDEYVAAEMRhUAAQxGHmqR6AbnRksnUAcDf70wYAa1SPCYnEUQAYAIDXyJ++dGpY9YB0wsPTgNfoyGTJhN8JAPepHgsilf0A8GxfOvWa6oHogPMCwCZ+F670zkEigy7XhcBZAWCh/rO44jvPTwBgq6tbAycFgK36LwFAreqxIFowAgAbXYwGnHMBOjLZrQBwBCc/4oO8C0fYu+EUTgkA+wX3qh4Hoi29romAMwKAkx8JiFMi4EQOoCOT3QgAP1Y9DsQo/rgvnXpJ9SBkY70AdGSyzawQBPf8SBhGAKCtL50aVD0QmbiwBXgWJz/CQS17d6zGagFgezks8EF4WWN7PsDaLQAr9BnE1R+JCNkKNNtaKGRzBLATJz8igFr2LlmJlREAS/ydVT0OxCpW2JgQtDUC6FE9AMQ6rHynrIsAWJ3/EdXjQKxkrW3nBWyMAKy3bhBlWBcFWCUAHZnsTgBoUj0OxFpa2TtmDdZsAdD2Q2LCKlvQpgigCyc/EgO17F2zAisiALT9EAVYYQvaEgFg4g+JGyveOeMFgB31xXp/JG7WMMvZaIwXAButGcQYjI8CjBaAjky2C20/RCFNptuCxiYB0fZDNMFoW9DkCKAHJz+iAUbbgkZGAB2ZbBsA9KseB4L4aO9LpwZUDyIspkYAmPhDdMPId9I4AUDbD9GUNezdNAqjBIAl/oxUWsQJjHs3jRIA1poJbT9EV5qYNW0MxiQBsb8/YghG2YImRQB42g8xgVqTtgJGRADY5gsxECNsQVMiAKP2VQhiShSgvQDg7T6IoRhhC2q9BWC23wBm/hFDOccuGNU2Iah7BIC2H2IyTbrfKqRtBIBtvhBL0PqacZ0jACOSKAhSBq1PC2oZAaDth1iIlrcK6RoB4OqP2IaWUYB2AsBsv1bV40AQwaxh77ZWaLUFwDZfiOVoZwvqFgFgvT9iM9rZgtpEAGj7IY6glS2oUwRgfI91BAmAVqcFtYgA0PZDHEQLW1CXCABXf8Q1tIgClAsAu1kF6/0R12jVwRZUugVA2w9xHOXtw1RHAGj7IS5Tq9oWVBYB4O0+6qip8mBsXH3yF5llhSpbcJ6KL2VokQSxmdamJLQtT0JrUwIaahNQX+sV/LkLIzMwNDINp85Nw8DbU3Dq3FTsY3UcMheUdA9SEgGwVkk/jv2LHaClPgH331EBd96WhFRl4QlfjuzEDPzizSl48ZeTcObCtPAxIgVRYguqigBw9RcMWe23rK6A1uXJyM8iwnHvx+fRP6fenoL9xycxKpDPswDQHPeXxh4BsJtTvh3rl1pMQ60HX7mnkq74MiERwXd/NoG5A7l8tS+dinVxjFUA0PYTC5n0j36ukjvUDwvZGnznpxNUDBApxG4Lxm0D9uDkF8P2e+bD7geqYpv8wLYG5DvJdyNSiL19WGwRANb7i4Os+mR/rpJ/+fVV+M7PJpSOwWJiswXjjAC0bIlkGjpMfsK9n5gHf7NBbt7BYWI7GxOLAODtPmIgobcOkz/HZ9qq4K/WxbcFcYg1LGKWjnQBYIk/XP0jcudtSdh0e4XqYczhgT9cAKs+fFX1MGwkliggjggAT/tFpKHWo6G/rjy2cSEsXTCuehi20cROykpFqgCwNl9a9UAzka/cE5/Vx0OqKgF//ekFMHUlq3oottHFImhpyN5Q4mm/iLQ2JYUV+QwMTsCZ85Pw/vi18t6FVQloaayAtubo0cVdK6uhdfkYnHo7C8n5KQGjRXztw6T1DZBmA6LtJ4bvfakqUnnv0PAUHHz9fTj8xmUYGy9c119TlYD1n1wAm1cthIY6/u8iArPjR+9CIjkfRUAs7X3p1ICMB8vcAmC9f0Ra6hORJv8Lr49B5zMX4ODJsaKTn0D+N/Iz5GfJZ3ghkUT7ikqYnrqC2wGxSJtLUgQAb/cRw/138Gf99xy6BHtfHi458fMhP0s+Qz7Ly/r2ays/ioBQ1rATtMIRLgAsaYGrvwB49/5kAh/u55985LO8IrB6ZdXs/40iIBQpc0pGBLATE3/RaW3iO89PQvgokz8HeQbPdiBVlaDbgBwoAsJoYidphSJUAJjth0d9BdDGsfcfGp6Cfa+OChsDeRZ5ZljaVtzoKqAICGOnaFtQdASAob8gWpvC/2oOvv5+qD1/OcizejkEpX3FXFsRRUAIwm8VEiYAzPa7T9TzXKehNvyv5vAbl4WP4/jpD0J/pqGucHkJioAQtrCGukIQGQHg7T4CKdbAsxgDgxNCV/8c5Jnk2WEoVUuAIiAEYVGAEAHA233Uc+b8pDHPRhGIzBpRtwpFFgA87acH70tY/aM8u6aq9KuFIhAZIecEREQAWO+PcIEiEIkmEQftIgkAs/0eiToIJDoLy6y4cT87aD4CRSASO9kc5CbqW4OJP01oaZTXLETmswFFIAqRm4hyCwCz/bDNlya0NVeW3XfzQJ4Z9rgwT/EQigA3W6K0D4vyxuDqrxmrV1YLf+b6Ty4I/ZmhYb4WYSgC3HBHAVwCwGqS0fbTjG3rFgmNAsizNq9aGPpz/Wf524WjCHDBbQuGfluY9YBtvjSkoS4JnesWCXseeRZPg5CBCAIAKAK8cNmCPMsF3u6jMQ+sqpk9kx8F8gzyrLBkx6cjRQA5UARCw2ULhhIAVoO8JeyXIPHy2KbFkUSAfJY8g4fjp8V1B0YRCM23w9qCYSMAPO1nCGQC79hQFyonQH6WfIZ38gPrIyASFIHQhJqjgZuCspZEP+YdFRKOvrSYppoqmoLKABuNhmJtXzr1WpAfDNQWHNt8mQuZ0A+vr6N/ZLYFJ/D0DggKiQTgCqAIBIPM1UBHhoPeC4Cn/SyATHRRkz0fIi4ikn+lQBEITGtHJru1L50qW6tTdoOIt/sg5ciOT0PmRf5OwmHAnEBgeoLYgkEyRHjaDynJ3pdHuKv/eEARCERtkIW7pACwGmO0/ZCiiOpCHBYUgUCUtQXLRQDY6AMpyiv9l+lFIqpAEQhEyeR9UQFgtcV42g8pCJn8mUPvqR4GikB57it1WrCgAGCbL6QUJOzXYfLnQBEoS1E3oFgEgLYfMofs+PTsnYO6gSJQkibWuHcOcyoBWdLgbFwjQwojqhJQFCOXp+GJFy/Bv78Z/p6AOMGKwaKMAEBzXzp1g3oXigCw4s9Anj48DGeG5LUGr12QgO/+6ZLQ5wviBiOBohRsH3ZDBMCSBUfiHhkyl7ARwCP73qWVeLc2VsDOzy6GjzXNh/BXiwaDbAX2HRmFgyfDXx4aFxgJFGVFXzo1mPt/8qUcV3/Deev8JGz/4Tvw2Sf+l2bqZZCqStCzBQd2NRa8B1AHMBIoyg0JwVkBYLZfq5IhIcIZG5+mmfovPDkU+mqvoDTUJeGpzqWQeXBJ0fsAVYIiUJA1flvQHwGg7WchQ8NX6RFdskXg6dYbhLtWVsOBXQ3CexKKAEWgILNznf622OqPtp/F9J+dgC88eZ4mC7OSrhHbtnYRHNzVIKQlmUhQBOYwGwXk5Hqj2vEgcXHw5BhsfnKIFvPIIFWVoB2F9m2v1yo/gCIwB9pFOMGq/vBef4cYG5+mxTwPff+CtPxAS0MFzQ+kN92kTX4AReAG6CG/BK7+7vLW+UmaH/jG8xel5Qc+074AerffrE1+AEXgOh2Z7EbyG+G+Vgixg+OnP6D5gd4jo1LyA2RbsG3tIrot0CE/gCIwy91EACLdLorYQ++rozQ/IKt+oKEuSfMDex9aSguWVIIiQGlL4JFfxE+ufuCRfe9Kyw+0NVfCj75ST/MDKrcFKALXBABB5tB/9lqL7z2HLknNDxxk9QOqcFwEalEAkJIc7s9C5zMXpOcHDuxqlHK7cRBcFgEUAKQsZFvQ++oobHvmHThxWs5x4Ia6JDzx4BKaH1BhG7oqAigASGCGhq9C+vmLND8g6+hxW3MlLStWcezYRRFAAUBC0392gm4L9hy6JK2s+IFVNTQ/sPlT4W8ojoJrIoACgHBzuD8rvaz44fV1sZcVuyQCRACOqh4EYi65smKZx45zZcVxHjt2RATOEQEYVD0KxHziPHb8F/fWxpIfcEAEBsi/YqBrhBEkCHEcO/7i6oXwT3/bCH95r/wb6ywXgQFv3RNjdQAQz82OllNT5cGdtyWhpT4BH6lP0P+mKud25rswMgNDI9Pw2wvTMHBuCk69PQ1j4zd2Z+btCagTZJXesaGOFvzIgmxBvv/KCPzsP+ROUkt7DLbP60unhjsy2Z/gkWA+cpP+/jsq4CM3BwtL62s9qK9NQuvyJGy6/VpN/C/enIJfvHkV/vnX8V2yGQcfWig3VCci8/WNi+HD9RWw79VRKggysPBq8nN96dRALqPyEgpAOMjEv//2Crj/jnkFV/mwEBEhf7asng8v/kpee++4+NRHq6D7T5ZAxTxZvYlv5IFVNTRH8I3n/48ec5aBZSJAm4POtgXvyGQHsS1YMMhEffRzlUImvih02gI8unExfPYP1E2SPYcuSb2x2JLtAG0P7vdUugCgV+GAtIes+l//o0oqAMhc2ldUwq7PL4blH1LbAeixTYvpf2WJgAWRwP7c3QCzG7S+dIqEBKeUDktjWuoT8IOHqnHyF6Chbh492vtU51Llkz8HEQGZzUcMdgdG/F2B839bO/FmoLmQyf+9L1VpFfLrQE1VgpbqfmFVDa3a0w0iAkPDV6VtjQyNBHqK3gzUl069BgA/UTIsTcHJX5jVK6tpie62tYu0nPw5Mg8ukVo0ZFgkcC7/9q9C/zIFrxF2kYZaDyd/Hrc2VtAju0/Qslz9t0NEnNIsJyALg0Sgq+ztwCw8eDzWYWlITZUHuzfj5M9RQyfSTbSVV1uzPv3+g3DXymrpzUYMEIGjLM93A8UyNj0sEpBfa6kpW1YHL+yxHbLP75QY6mfHp+H46XF4a+gKnPF5+C2NFXBrw3xYvbIq8nc/vKGOdj+WieY5gYJX/xUUAFYduNNVW7C16XqFnsu0r6iEx+jFHnJC/aHhKdppqJhdl0vekeiDrOA7NtRyCwH5O6xvT0mtDwB9RWA/y+/NYbYQqBAdmeyAizcGk31/6/LoLz1Z2d4ampx9kRdWJdiqViF8NRVZCERtvfsXSw31X+m/TI8RhyndrWH7+bs4w/kzQ5O0kUkcaFQsNAIAzfl7/xzlTFvnbEGy+ked/AODE/QOvlIhJ1nRSGit036aTLDOdYtoWa1Meo+M0pU/LEQs0s9fpLkIngNGLQ0VNIkpq1TYj0aRQE+xyQ/lBICEDa4dFCJ7f15ISLvn0HuBVmIiDuQPCbMzDy5RbqWR8DhKiB0UsvLzTH4/mUPv0f/yiAD5e751vuh8EIoGInCuL50qee1/kN+2M7ZgQ63HvfrnwsuwYTj5+c1PDklrslkOIkD7ttfTohnZk5/8HXOTNypk+8DTeKQt5huLFbsDZedu2d+4S7bgnR/lK2MlL/aOH73LfRSVfI58Pk4RIPt8Enk81bmUhsZx8PTL4lZe8m+2h0NM4vq7+lEkAkf70qmXyv1QUMnvYckEq/n0J8ILQJZN3qjn0HMvtKwuOjnIPn/bukW0tRZvMo2HM75kqCjI83iigDgbjOZQIAKBIvdAAsCSCNZvBXh8/70vjwhrQvHW+Uk4IKnDLrD9b658N25k2W88z1Vx8QjEKwL7+9KpgSA/GPiNZ1VE1nYQbm0Kv/cnq4/oF/vgyTGuKOCWm4q/1GTF2/vQUrrPV1W+e0ZS5n2AI6poWKyuhDkGERgJs1iHlcIuW23Blvrwq7+Ma7LGWFVc2Az3TQvnvtRkpetct0hqT76gyDqRF4elJxrJ7kBJ2y+fUG89qybazzUszanhqPmXVVrK89xleREA2ef3br9Zi8kvE1k9AGUjKRIoa/vlw7MZIl+w0bZzAg114QVAx1Vt9cpqWvcuK9Qn25OLY9PaNP4wGQmRwNawHwgd9zJbsCfs53SnvlafU39Dw+E7Ay+qTkg/pvtK/2V6Q3Dff14O/VlZibdbG80+syEwEjharN6/FLy/lR6mNthEVBM+9ftV0p49MDhBq/eiRDxkovIIWzlaGuYLf2bcCIoEQq/+wHs5KEsyhNpr6M7YuOoRXEeVTZVPltYmXKJ1Dv7JP3QpvPcu6zw+j6fP4xzIJmIk8JS/zVcYuGs/bbMFf3shfDJJVkGJDmFt75FRWqJcyOY8M3Ql9PNWr6wS3pqLCCVPkvM8h4DFAacIjERZjKP+RqyKAsIiq65cRaVajhOnP6A3/faWuGWHJ0mZYg1ERdK5LnxBE4lqZGxFRMEhAnPafIUhkgDYZAsOvB1+VZDVdnq9AutuaHiK9hRIP38x0AThqYHYtnaRsOiGiCTP6q/L5SmlCCEC5/rSqUgJeRExWZcN5wR4tgC5LjMiIatknEeDyYr49OFheqNvmMlx/DRf0mRv59LIOQ4iIpkHl3B9lnfccRNQBLgSf34iv2m22IJj4zPw23fCi8CODeLuqqcNOWKs03/h9TG6zz94Mvz5A94iKCJuvdtv5o4EaFfizqVcInmt96DcvoAiKSMCXLZfPqKWmh7Wc9xoTp0Lvw0gL2Lmi3yrkR8y+fc+xPdih2VgcILu88O25PJDPvdKf/h6AGD/ZmQSh80JbFu3iHYl5v03Iqu/aZWDJUQg8uoP5XoChqEjk91qehPRlvoE/MNDfHYVmQy8zS5qmIjIbg9G9vlPvzwsbBUkofyBXQ2Rx3Tw9ffh+H+NF8w9kBX/rpXVdKsVtcCJiJ7OCcBS5PUYfDxsyW8xhAkAXBMBEpKsEfZABURpCHpmaJKe6Q+TJScv+GObbpLaqIKEvgdeH4vciqsQvP35CpFroppDZPPUKAKtC0wESjb5DItoAbjb9NOCn/7EPHoDcBTIy7bv1dGSqw2Z+JtXLZR+WIen+24YSBRA9vSqexqWggjL5ieHjAv/C+F5yS8f3d34Q2HPEykAcE0EngWALUIfGjM/+PNqIZeCkPB24OwEnPcJQWPdPFo/IPtcPtnnk3A/juOyZC//8Po66d/Dyzeev2hU8q8EvznWvezjIh8oo+bU+NOCz/zrFfjeF6PX1pNJHvdx3HKXbcjg4MkxaG+ujLXFWFBIBGTJ5AeYmfmq6EcKj9tssAVPnZuCQ78yq9EECXN7j4zSzsRxTv4cmUOXlHU2LgYZz16BjUhV4oH382N//3v/Jvq5sjZuxtuC+49PwoURsdsjWeSO6ZYq35WNis7GpYjaqVk7vMQOKY8VnQPIYYstqPP14OQlJ/t8ncpbc/UMKtpv57Bt8nvgPXG0+5ZvSnm2LAEAS2zBO29Lwu4H5J2154GE+3tfHlES6gchrrqGQpw4/QHdjtgy+QFg1POSzUd3N16S8XDZAmC8LUi492MAj35e+R1vFLLPP3hyzIgXfNu6RbG1ICeiuI/921jGl491LxNm++UjVQDAEluQ8OEPXYWeP1uozO8mYf6eQ5eMq2SL46bhgcEJyLxo3r9NAE4c6162WuYXxCEAzeR3ZLItmOPmmkl49PPVsYa2V67OwLf+8T04+d9mW1ntKyppRCDy305EqzKtmZm5R0bm3490AYBrItAFAN+W/kUxMH11Ajbdfu3UnsxoYGJyBn55ZpwWsdjErY0VtK7/rpXVXMVQQ8NTdJ9/4OSYjSv+LB54zx3tvuVL0r8nJgGoY1GAFU1EiQhUJ8dhx4Y64YU+ubp9U/b5USDbAxIZNCxOluyCRO8AvDTF7gK0d9L7GPW8ZPvR3Y3/I/uLYhEAsMQW9ENEYGryMs14r//kAlrXH6W8N3cq7vAbl62f+EhpZNp+c74rLgEAS2xBPzkRyEHC27YVlbQstqVxfklBIBP+zPkr0D84UfQoLOIkv/O8ZKss2y+fuAXAClvQT74I5EMiBH/3G2sTVogopNp++cQqAGCRLeinnAggSECk2375qDC1rWgi6icxrxKSFXZfwonEwMzM43F/ZewCYMNpwUKgCCBR8MB7TrbnXwhVbVyMPy1YCBQBhJNR8BIPq/hiJQJg492COVAEkLB44D0dV9Z/znfHnQT0Y5st6AcTg0hAfnese9lyVV+uupPjTsXfLw2MBJCAfE3llysVgL50asCWuwULgSKAlOHEse5lL6gcgOoIAFgUYJUt6AdFACmG5yUfUT0G5QLAEoLW2YJ+UASQfOhpv92Nb6geh3IBgGsi0GWjLegHRQDxocz2y0cLAWBYmxDMgSKAgGLbLx+lNmA+NtuCftAidBqltl8+OkUA4EIUABgJuM3MTKfqIfjRSgBstwX9oAg4yQkV9f6l0EoAGFbbgn5QBNzC85LaHYPXTgBcsAX9oAi4gQfeM3H0+AuLdgIAjtiCflAErGcUvMTfqR5EIbQUAIYTCcEcKAJW062L7ZePVjZgPq7Ygn7QIrQOrWy/fHSOAMC1KAAwErAPzWy/fLQWAJdsQT8oAtagne2Xj9YCwHDGFvSDImA+Otp++WgvAK7Zgn5QBMyF3u6joe2Xj/YCAA7agn5QBIxkFLzEk6oHEQQjBIDhXEIwB4qAcezS1fbLR2sbMB8XbUE/aBEawW+OdS/7uOpBBMWkCABcjgIAIwEzmJn5quohhMEoAXDVFvSDIqAvHng/1932y8coAWA4aQv6QRHQFC+xQ/UQwmKcALhsC/pBEdALU2y/fIwTAHDcFvSDIqANxth++RgpAAynE4I5UAS0wBjbLx+jbMB8XLcF/aBFqIwTx7qXrVY9CF5MjgAAo4DrYCSgiJmZx1UPIQpGCwDagjeCIhAvHnjPmWb75WO0ADCctwX9oAjExih4iW+pHkRUjBcAtAXngiIgH3a7j3G2Xz7GCwCgLVgQFAGp/M5U2y8fKwSAgQnBPFAEpLHbVNsvH6NtwHzQFiwMWoRCMdr2y8emCICwVfUAdAQjAYEYbvvlY5UA9KVTgwDwlOpx6AiKQHRssP3ysUoAGF1oCxYGRSASo+AlHlY9CNFYJwDMFuxSPQ5dQRHgg9l+ViT+/FiVBPTTkcmS7UCT6nHoCiYGQ6H17T5RsC4C8IEJwRJgJBCKr6kegCysjQAAbcFAYCRQFqtsv3xsjgAAo4DyYCRQGs9LPqJ6DDKxWgCYLWiVbysDFIHCsDZfb6geh0ys3gLk6MhkBwCgVfU4dAe3AzdgVH9/XqyOAHzcjbUB5cFIYJZRz0vep3oQceCEALDaABSBAKAI0Mm/1oajvkFwQgDgevcgFIEAOCwCuclv9b7fjzMCADeKAPYOKIODIuDc5AfXBACui0AbABxVPRbdcUgETnhestm1yQ+uuADF6Mhkd7JzA7Wqx6IzNrsD1OrrvuWbqsehCuciAD996VQPiwaws3AJbIwEPPCe87zkR1ye/OB6BOCnI5NtZm3FtmJEUBgLIoFRD7yfgpf4litZ/nKgABSgI5O9GwA2suigDQXhOgaKwAkPvFMzMPPase5lL6gejG6gACCIwzidA0AQ10EBQBCHQQFAEIdBAUAQh0EBQBCHQQFAEIdBAUAQh0EBQBCHQQFAEIdBAUAQh0EBQBCHQQFAEIf5/wAAAP//jHAdPddwNC0AAAAASUVORK5CYII=;clipPath=inset(4.3% 0% 4.3% 0%);" parent="dhW7Y5vE-Pte1g8_rLPb-4" vertex="1">
          <mxGeometry y="3.1999999999999886" width="60" height="54.84374999999999" as="geometry" />
        </mxCell>
        <mxCell id="dhW7Y5vE-Pte1g8_rLPb-5" value="" style="group" parent="1" vertex="1" connectable="0">
          <mxGeometry x="40" y="340" width="200" height="60.620000000000005" as="geometry" />
        </mxCell>
        <mxCell id="bkZSs18tM1RNsjHw4RB3-4" value="Airflow&lt;div&gt;&lt;i&gt;Cloud Composer&lt;/i&gt;&lt;/div&gt;" style="rounded=1;whiteSpace=wrap;html=1;" parent="dhW7Y5vE-Pte1g8_rLPb-5" vertex="1">
          <mxGeometry x="30" y="0.6200000000000045" width="170" height="60" as="geometry" />
        </mxCell>
        <mxCell id="bkZSs18tM1RNsjHw4RB3-5" value="" style="shape=image;verticalLabelPosition=bottom;labelBackgroundColor=default;verticalAlign=top;aspect=fixed;imageAspect=0;image=https://www.ancoris.com/hubfs/Google%20Cloud%20Logos/Cloud%20Composer.png;clipPath=inset(4.3% 0% 4.69% 0%);" parent="dhW7Y5vE-Pte1g8_rLPb-5" vertex="1">
          <mxGeometry y="3.0100000000000002" width="60" height="54.609375" as="geometry" />
        </mxCell>
        <mxCell id="dhW7Y5vE-Pte1g8_rLPb-6" value="" style="group" parent="1" vertex="1" connectable="0">
          <mxGeometry x="40" y="430" width="200" height="60.620000000000005" as="geometry" />
        </mxCell>
        <mxCell id="bkZSs18tM1RNsjHw4RB3-1" value="BigQuery" style="rounded=1;whiteSpace=wrap;html=1;" parent="dhW7Y5vE-Pte1g8_rLPb-6" vertex="1">
          <mxGeometry x="30" y="0.6200000000000045" width="170" height="60" as="geometry" />
        </mxCell>
        <mxCell id="bkZSs18tM1RNsjHw4RB3-2" value="" style="shape=image;verticalLabelPosition=bottom;labelBackgroundColor=default;verticalAlign=top;aspect=fixed;imageAspect=0;image=https://www.gainsight.com/wp-content/uploads/2023/02/bigquery.svg;clipPath=inset(5.33% 1% 6.33% 0.67%);" parent="dhW7Y5vE-Pte1g8_rLPb-6" vertex="1">
          <mxGeometry y="3.67" width="60" height="53.898305084745765" as="geometry" />
        </mxCell>
        <mxCell id="dhW7Y5vE-Pte1g8_rLPb-10" value="" style="endArrow=classic;html=1;rounded=0;entryX=0.25;entryY=0;entryDx=0;entryDy=0;exitX=0.25;exitY=1;exitDx=0;exitDy=0;" parent="1" source="bkZSs18tM1RNsjHw4RB3-4" target="bkZSs18tM1RNsjHw4RB3-1" edge="1">
          <mxGeometry width="50" height="50" relative="1" as="geometry">
            <mxPoint x="100" y="380" as="sourcePoint" />
            <mxPoint x="150" y="330" as="targetPoint" />
          </mxGeometry>
        </mxCell>
        <mxCell id="dhW7Y5vE-Pte1g8_rLPb-11" value="" style="endArrow=classic;html=1;rounded=0;entryX=0.75;entryY=1;entryDx=0;entryDy=0;exitX=0.75;exitY=0;exitDx=0;exitDy=0;" parent="1" source="bkZSs18tM1RNsjHw4RB3-1" target="bkZSs18tM1RNsjHw4RB3-4" edge="1">
          <mxGeometry width="50" height="50" relative="1" as="geometry">
            <mxPoint x="180" y="390" as="sourcePoint" />
            <mxPoint x="230" y="340" as="targetPoint" />
          </mxGeometry>
        </mxCell>
        <mxCell id="dhW7Y5vE-Pte1g8_rLPb-15" value="" style="endArrow=classic;html=1;rounded=0;entryX=0.25;entryY=0;entryDx=0;entryDy=0;exitX=0.25;exitY=1;exitDx=0;exitDy=0;" parent="1" source="dhW7Y5vE-Pte1g8_rLPb-1" target="bkZSs18tM1RNsjHw4RB3-4" edge="1">
          <mxGeometry width="50" height="50" relative="1" as="geometry">
            <mxPoint x="120" y="309.38" as="sourcePoint" />
            <mxPoint x="120" y="340" as="targetPoint" />
          </mxGeometry>
        </mxCell>
        <mxCell id="dhW7Y5vE-Pte1g8_rLPb-17" value="1" style="text;html=1;align=center;verticalAlign=middle;resizable=0;points=[];autosize=1;strokeColor=none;fillColor=none;" parent="1" vertex="1">
          <mxGeometry x="80" y="310" width="30" height="30" as="geometry" />
        </mxCell>
        <mxCell id="dhW7Y5vE-Pte1g8_rLPb-18" value="" style="endArrow=classic;html=1;rounded=0;entryX=0.75;entryY=1;entryDx=0;entryDy=0;exitX=0.75;exitY=0;exitDx=0;exitDy=0;" parent="1" source="bkZSs18tM1RNsjHw4RB3-4" target="dhW7Y5vE-Pte1g8_rLPb-1" edge="1">
          <mxGeometry width="50" height="50" relative="1" as="geometry">
            <mxPoint x="200" y="340" as="sourcePoint" />
            <mxPoint x="200" y="309" as="targetPoint" />
          </mxGeometry>
        </mxCell>
        <mxCell id="dhW7Y5vE-Pte1g8_rLPb-19" value="2" style="text;html=1;align=center;verticalAlign=middle;resizable=0;points=[];autosize=1;strokeColor=none;fillColor=none;" parent="1" vertex="1">
          <mxGeometry x="80" y="400" width="30" height="30" as="geometry" />
        </mxCell>
        <mxCell id="dhW7Y5vE-Pte1g8_rLPb-20" value="3" style="text;html=1;align=center;verticalAlign=middle;resizable=0;points=[];autosize=1;strokeColor=none;fillColor=none;" parent="1" vertex="1">
          <mxGeometry x="200" y="400" width="30" height="30" as="geometry" />
        </mxCell>
        <mxCell id="dhW7Y5vE-Pte1g8_rLPb-21" value="4" style="text;html=1;align=center;verticalAlign=middle;resizable=0;points=[];autosize=1;strokeColor=none;fillColor=none;" parent="1" vertex="1">
          <mxGeometry x="200" y="310" width="30" height="30" as="geometry" />
        </mxCell>
        <mxCell id="4RjpusguZEQViD7oRY8Q-2" value="&lt;i&gt;Ingestion DAG&lt;/i&gt;&lt;div&gt;&lt;i&gt;runs daily&lt;/i&gt;&lt;/div&gt;" style="text;html=1;align=center;verticalAlign=middle;whiteSpace=wrap;rounded=0;fontSize=16;" vertex="1" parent="1">
          <mxGeometry x="50" y="500" width="200" height="30" as="geometry" />
        </mxCell>
        <mxCell id="4RjpusguZEQViD7oRY8Q-3" value="" style="group" vertex="1" connectable="0" parent="1">
          <mxGeometry x="280" y="249.38" width="200" height="60.620000000000005" as="geometry" />
        </mxCell>
        <mxCell id="4RjpusguZEQViD7oRY8Q-4" value="Airflow&lt;div&gt;&lt;i&gt;Cloud Composer&lt;/i&gt;&lt;/div&gt;" style="rounded=1;whiteSpace=wrap;html=1;" vertex="1" parent="4RjpusguZEQViD7oRY8Q-3">
          <mxGeometry x="30" y="0.6200000000000045" width="170" height="60" as="geometry" />
        </mxCell>
        <mxCell id="4RjpusguZEQViD7oRY8Q-5" value="" style="shape=image;verticalLabelPosition=bottom;labelBackgroundColor=default;verticalAlign=top;aspect=fixed;imageAspect=0;image=https://www.ancoris.com/hubfs/Google%20Cloud%20Logos/Cloud%20Composer.png;clipPath=inset(4.3% 0% 4.69% 0%);" vertex="1" parent="4RjpusguZEQViD7oRY8Q-3">
          <mxGeometry y="3.0100000000000002" width="60" height="54.609375" as="geometry" />
        </mxCell>
        <mxCell id="4RjpusguZEQViD7oRY8Q-6" value="" style="group" vertex="1" connectable="0" parent="1">
          <mxGeometry x="285" y="430.62" width="210" height="79.38" as="geometry" />
        </mxCell>
        <mxCell id="4RjpusguZEQViD7oRY8Q-7" value="&lt;div&gt;MongoDB Atlas&lt;/div&gt;" style="rounded=1;whiteSpace=wrap;html=1;" vertex="1" parent="4RjpusguZEQViD7oRY8Q-6">
          <mxGeometry x="25" width="170" height="60" as="geometry" />
        </mxCell>
        <mxCell id="4RjpusguZEQViD7oRY8Q-8" value="" style="shape=image;verticalLabelPosition=bottom;labelBackgroundColor=default;verticalAlign=top;aspect=fixed;imageAspect=0;image=data:image/png,iVBORw0KGgoAAAANSUhEUgAAAoAAAAFoCAYAAADHMkpRAABDHElEQVR4Xu3dB3gU1frH8QCKXhu7AREFEayI7dr1qtersEuXjlQVURFUFITdJEAKXXoH6UER6YiAAtJ77xB6CQGSkEBCenZz/jPx+r84Z4H0Lef7Ps/n0efN7uzJZvfMj9mdM35CCD8AAACoQ2oAAADAt0kNAAAA+DapAQCFJfpqfLHIyzG3nLscU1Jz+zVu+2+vREJqknQ/AEDBkhoAUBAOXzx96/y9a8ot2Lv2qfl71/5b+2/dFwZ/2LKUzdLZZLf2NNksfTXfZbNbe5vslh5mu7XDBz/2aqbdtpZ2n9e0/z6mbcM/PjmxuHH7AIC8kxoAkFdaaLsjcNH4V4J+HdfeOubrIVqom6eFui1awDut/feqxqkRN5GpuazdJ0L77xptGz99OrN/n6BF45tq265y4MLJW42PCwDIHakBADmRlZX1/xpOtj9lGd0p5LFezVaabNbjeoDTOFyEu7zKMNusF7VtH3ppYNuFljGdPum7YlrZvx7fODYAwI1JDQC4mX1Rx28bu37eU/fYq3fQgtk6859H7YyhrbAlaIFwnjnQ2njr6YPlz8RfvMU4TgCAa1IDAK7n4IWTt41ZN+eVx3u/H6wFsH3mgj3Kl1cZJrt1Sd3vu34xZt3cx5LSUooZxw0A+DupAQCufP7zgErvjPxigNlu0YKfJcNFEHOnLG1Midp/N74/tUd7LQjeZRw/AOB/pAYA6JxZWX5nr8SX6L/sx/uq9mnV0d9uPakFrLQ/w5YUwDyFHgSv3t+97tqn+rR5b0XEjlIXr16VfjcAUJ3UAADdov0b/W8P+qiVyW5Za9ZPwpDDlqdL1sY+86nhIa/vizp+h/H3AwCVSQ0Aatt2+lDJwEXj//1waOMpWoCKcxGsvIY2/izNkf+M6Ng3aPGYKldSrvL9QAAQBEAA/6Uvp9J4zJdlnxvQ5jvzn0u5uOPM3sKSYrZb9r49rH3bAYvH3cLSMQBUJzUAqOVycmLxLacOlK828stPtZAU5SI8+RCLFmot6+wLx9TXfmd/43MBAKqQGgDUMX3r73d1mjO0uclmWaIFpGQ5MPmsS6Zulimj1s55de2xPVxZBIBypAYA37fs+J5irX7q93z5HvUna2Hogtmzz+wtLFkmm3XPCwM/DHl/5oAKMUkJ0vMEAL5KagDwXTFX40usPbarUsWQxn1K/Xl9Xl/6nl9e6MvGpGrPxYF/DW3fJvJydKnE1OTixucNAHyN1ADge84nxBWbt2dN+TeGfvqh2WbZ7yIIwWZN1yxo//OAevN2rSrFiSIAfJnUAOBb+s6fd2vL8JBGJrt1nhZ0rpjV/Lg3p/TnJtLUtdr3tnnjnp2/dav0fAKAL5AaALyffvTKmeX0G7D8h0plur43Xgs1582ecd1eb5Fp6mbd92hIi29XHtlh1p9L43MMAN5MagDwboeiTxabsX3ZE6ZulmCz3aKf4GEMN8gFk916oHJI4xZbTh+493xCDAtJA/AJUgOAdzp+/LjfsJmTyr44pE1rLfhtNHPEryAlmwOqT38/vHvNIeNH/cPp5IggAO8mNQB4n4TUpOKW79q/e/cnb8w22a2xZr7nVxgc2nN78q4WL40NWTKhovFvAADeRGoA8A7pjgy/yMsXS341d+CjT/RuNspss8SbOOpXFDLKBtU6UrVv86+mb13ywPmEGJaNAeB1pAYA7zBqzc+PlQ2s1tVssx7VQonTRVBB4dIvK7f+8d71mm0+tb+08e8DAJ5MagDwbL8d3Hx3wKKx75ex11iphZAUF8EERSvu+e8+mBTwy9i3T8ZGlTT+vQDAE0kNAJ5HX4YkNulKsf+M/vr5Kr2bzzTZrdFmvufnQSwZZpv11KuD2w3+dNYgk8PpzF6Kx/h3BABPITUAeJYLCZdK1hrVqUqpbtWGmDni5/FMWhC845u3O4QtmfRgakYa3w8E4JGkBgDPMWbtvIqtwkO+0YLFTjPX7fUmyZqlYUsnNV1yYP2dxr8rALib1ADgfjO3Lbu1TXhoHX97jVVakEhwETDgDWyWqCp93p/Q5oewFw5dOMXRQAAeQ2oAcJ99kSdvf6jLhy9X6FHvJ5PNEmvie37eLsukX1bObol8JKzJgHemjC0Xl5xwi/HvDgBFTWoAKHrHYiJvmbtn9ZOPhDYJNf95gocxSMAHaGFwZ4OJ9o+1v3WFxLRkLisHwG2kBoCi1eOXcWXqjO/6pRYO1msyjKEBvsZyWfs7L+wwa2D96ZuXlDC+HgCgKEgNAIVPXyJk+Ijhxf4T/OHr/jaL/j2/y2Y+7lWJvnB3ZKWQhqPfbNfwka3btrJsDIAiJTUAFK5dZyNuH/zHjNfNNmu4+c+zRY3hACqxWS9o/w1dc2xXpZOxURwRBFAkpAaAwrEvKqLY6LWzHqsc3LC7tsM/JgUBqEw/+rvSOvrrD4esnFM2LilRev0AQEGSGgAK3rGYyDvfGt6+rb/dstpsYzFnuKSHwNi7u1rntZoW9h/jawgACpLUAFAwktNT/c7EXbiz4YTAVx8JbbLKZLNeNf/53S/jjh+4lsPfXiO2Sp/mw/svD69yJv5CSf1SgMbXFwDkh9QAkH+/HN5wq/2X0a+V6lZthNlmiTNzggdyT3/NHC1lr277ccfvlbeeOyy9zgAgr6QGgPyZsf23B8qG1gk02S37zFy+DfmXroXAJS8Pb9d8+5lD9xhfbwCQF1IDQO45nE6/fVHHbq82umPDyqENV5vtliQXO3IgjyxOTcw/B7SZVXeC7dlMp6MYHwsDyA+pASDnYpKS/DaeOnL3a0PavW6yWZZpO2uHvPMGCpAte+mgAV/OH/rU+tMnSmY6CYIAck9qAMiZxNSkEh/PGvnC3QFNvtN2yJHSjhooPJlaENz1j6DWXSZt/vUB42sTAG5GagC4ueGr5tzdeFJgZ5PdukfbGae62EEDReHqg8H1l7SZHlp39dGdtxlfpwBwPVIDgGtRUVF+vx3abHp6QKv65YLqrjfZLFzFA55A/35g/EMhDWa+OrTd86ejo26Lj4+XXr8AcC2pAUC2O/LoHVXqvvEvbWc708zl2+CpbNaYuz96rXvz7l9UvZBw6Rbj6xgA/iI1APxPXFJCsYCFY594c1j7viabJULa4QKexmZNNdmsG1tMC+k0bPWPpYyvaQDQSQ0Awk9fYqPrgom3/mvo5+20Haq+np9++TYWc4a3yDLZrVfu71576Ztjvnlr7sHNJbKysqTXOQB1SQ1AZU5tJ7np5D7/LvNH1DfZrOvMLOQM75dkslnCf9qx7NWDF05yogiAbFIDUNXqI7tuGbpq5mtme/Up2k4z1sWOFPBmx14a+JF9+OpZj5+8dL648fUPQC1SA1DNhatxfk1mBJd/bsCHoaY/P+7lo174Iv11naQf2baO/rrdl0tGlDS+FwCoQ2oAqriSklT8dNwF08uDP/qwlL36AZPdmvbfnaRxxwn4kiyzzZrkH1BjyZezh7ypvQfuTM/MkN4fAHyb1AB8nX7d3jl7V5X6eEa/ulrom6/tEDNc7CQBFcRq//gZOWzVzNfWHdtbwvheAeC7pAbgy2YdOODXZeH3z5oDrRPNtuzLt3HED6pzmm2WvU/1bf1t519/rLA/Olp63wDwPVID8EWZDoff74c2lX6kd6uuJnvN/WbO7gWulWWyWxLvsdde88Kgdo0uJV25VT9SbnwfAfAdUgPwJeeuxPhtOrW/7EMh9VtpOzk9+Bl3fACMbNYFjScFvbn5xJ67k9KSpfcVAO8nNQBfkJGR4Tdw3PA7mk3pXtM/oMYPZi7fBuSG02SznCnT9T+Dev467gXj+wuA95MagC+wLRhT8a6WL48z26wnNQ4XOzgAN2VJLx1QY1er8JCOP+9cYTa+zwB4L6kBeKvTl2OKT968sPwTfZp2KhNY65gW/Di7F8g//fuByeV7vLf+kbD36+85d+ye6KQr0vsPgHeRGoA3Wn98T+nSYU2bm+2W9WZO8AAKS1opu3XyOxPsbx6LibzD+D4E4D2kBuBNtJ1QSdvC0W8/07/1ZJPNEudihwWgAJnsVocmos74b/sFLRr7uPE9CcA7SA3A0zmznH4Zjsxibaf39X9pUNsh2k7ptInFnIGiZbOm+Nut+98Z0bHVuLVz/5GRmemXlZUlvV8BeCapAXiylPTU4j2WTax4Z+C7Hc12yylppwSgqOlfuVhz2yf16q84vNNkfM8C8ExSA/BUC/auu7PH4u+bazub38w2lnUBPExc5dDGY4av+vn13ZFHSxrfvwA8i9QAPM3+qJPFW08Le+GxsGYTTTbreRc7HgAewZJpsln2vzGsfehHM0PKGd/LADyH1AA8xaWkK7e8OWFk+UohDQdowS/KbLPoHzVx7V7As+nv0TST3RLx8Je1mnUN625OTk8tbnx/A3AvqQG4W0JqUrHZu1ZVqDe+WzttR7LLxQ4GgHdI1v7htjBo0dj3lh7YeJfxvQ7AfaQG4E7hG+aW+OSn/g3NNusvmssudigAvI4lsmLP90YGLBr53OZTu4sZ3/cAip7UAIqavnREuiOj2JTNvz5eKbjeWJPNEqXtNJzyTgSA97Kk+9st+57p37Lbvqjj5kxHpjQXACg6UgMoSkdjIkssP7z1YZO9eqi2k7gg7zQA+KDD/xrcvtGGE3vLxiZd4Ygg4AZSAygKMUkJfoPWzi37n5FfflSqm3WVmZM7AJVkmW2WhFJ26w+fzvyu9tg1c1g2BihiUgMoCk0n93jn7oCa87UdQWz2zkDeQQDwfQ6TzXrqXnvNYSPXzK5snCcAFB6pARQGh9Ppd/LS+ZK9fptU9fFezUb42636dXsdLnYIANSTUS6oTsTjvZt8/dvBTRXOX4nlY2GgkEkNoKBtOnvAb+rWJQ+XstewaxP9UTNH/AC45jTZretfHPhh/Zm7N5Y5ffmyNJ8AKBhSAyhIm08dKPXCsLYtStktv2mTe7qLCR8ArqX/AzH67oAGUxpMCXv7ckpiCeO8AiD/pAaQX5lOh196Zkaxmt9/8+wz/VvN1v5FH2NmWRcAuZOhzR1n/zX0077Biyf663OKMytLmm8A5I3UAPIjPjmheNu5/SvdHVAtyGy3JLqY1AEgN5wmm/XAP9rXbTN+zeLS+rqhxnkHQO5JDSCvJkyeWKLj7EF1tAn7d02qi4kcAPLqitleY/KQRdMeX7FihTT/AMgdqQHkxbg1c0ve9+GbX5tt1hNmPu4FUDgcpTq9s/KZbk1qbTp1gO8GAvkgNYDc0L+XM3rN3IrlguqOM9ksCS4mbAAoSPqZwucqhjTotOPM4XuMcxKAnJEaQG4MXz3rebPdskiblDNdTNQAUFjSKoc0+G7jyb1ljfMSgJuTGkBOjd+w4OkyATXXmPnIF4BbWFKfH/DBiDVHd5U3zk8AbkxqADfjdDr9vt+44PkKPeuvNhP+ALiTzZpctW+LiTvPRpTjDGEg56QGcCMZjsxiQ1fNfEWbeDdKEzEAuM+MXWePmI1zFgDXpAZwI2PWza2kTbR/mLmcGwDP4nyqb8v+q4/sNBnnLQAyqQFcz7gNc+4s36PuVH2idTH5AoB72axx/+z/YaeNJ/aXNM5fAP5OagCuzNr12x0P9qzV12y3JEmTLgB4hiwtBEZV7tX4/XNXolknELgBqQEYxScn3tpx9qDW2uQa5WLCBQBPc2Dy5sXPGucyAP8jNQCj9j/3e1KbULe7mGQBwCM90KPezPBtv95hnM8A/ElqANfSz/ot1732ZG1CdRgnWADwXJaEluE9P810OooZ5zUABEDcwJn4qGL/HtG+gTaRZsiTK5B//i56QEEx2ax7O88d/sqVlKvS/AaoTmoAf+m7fGJF/4DqXOkDhabxpEDx7+EdpD5QIGzWdP+u1uGbTuwrZZzfANVJDUC34/TB4i8M+KCTNolekSZVoADUGPuNiLh4Rizav148/92H0s+BgmCyWaMs47q8melwSPMcoDKpATicDr8pm3592mSzbDaz4DMKmL+9hnh31Jdix9nDIisrS2g7ZjFzxwpRpU9z6bZAAcgy2a3zT1+6cItxrgNUJjWA2KuXbyn1rbWzNnFmuphMgXx5ZVA78UfEduF0OsVflan9/7j188X93etKtwcKQOa7I7582TjXASqTGoBt4UR/k826y8UkCuTLA93ridm7VooMR6YwVnJ6qugyf4QoE1BTuh+QX4/2bjJ5wYFVLA4N/JfUAJ7t/2FjE0f/UMBKB9QQfX6fKtIzM4Sr0j8OPnXpvGgVHsLZwSgE1Y/afhn1knAx5wEqkhpQW0T06Vuf7Nv8N3nyBPKuXPc64tv5I0R8cqK4WR26cFLU+76b8NcCo3E7QD6ktA4PDYtOjOe7gIAgAMLg05n9nzfZLeddTJ5AnuhH/ppMDhJHYyJFTmvd8T3i6f6tpG0B+WHqZl02e+eqh4SLuQ9QjdSA2j6b2d9mtluSjRMnkFfP9W8jtp4+KJxZWSKn5XA6xZTNi8V9QbWl7QF5ZbJbL8zevdIiXMx9gGqkBtQ1fctvprKBdRaYWfoFBaRCz/fE4v0btPD3vzN+c1qJqckiZOkkLQTWkbYL5JGzQnD97mfiL5QULuZAQCVSA+qasPGX10026wEXkyaQa+W18Nd/+XSRluH6pI+c1Nn4aNH2xz7i3sBa0vaBvDDZrStOxZ0vLVzMgYBKpAbUdCY21q/6IFsrM1f+QAEoHVBTtJ3RR0Rdic0+uzevpd9359kj4l9DP5MeA8ijS/Y5gyoLF/MgoBKpATXtOnP0tns6W8PMXPcXBeDN4e3Frsgjufre3/VK/z7gr/s3cBQQBSXr8dDGdYSLeRBQidSAmnafO3qfyWbRv/9nnCyBXHk4tLH4I2KbKMhyOB2i77JpXCkEBeKxXs0GChfzIKASqQE1aQGwsslm3W2cKIHc0I/S9fl9SoEc+bu29I+Cz12OEa3DQ7OXlTE+LpAbj/VuukS4mAcBlUgNqGnPuaNPaxNjvHGiBHLj/ak9ROTlaFEYpV87eP3xveKVwR9LjwvkhvYPlWO9F08qLlzMhYAqpAbU9ETvxhYzy78gH/41rL3YeGJfgR/9u7b0j4Knb10qKgY3kB4fyCmTzRLTamrwA8LFXAioQmpATfcG1v7QOEkCOVUppKGYtmVJdkAr7MrIzBRfzRkqjQHIKZPdGt8iPOQF4WIuBFQhNaCmst1r2Y2TJJBTHX4emL1wc1HVkegz4u0RHaRxADljSWgVHlxTuJgLAVVIDajpvqBa38mTJHBzz/ZvI47HnhNFWZmOTDFr1x/i4bDG0niAm7MkagGwuXAxFwKqkBpQU9nutcfKkyRwYw+HNhLz9qwuko9+jXU1LUUEL5kgynGpOOSWzZLcalrIJ8LFXAioQmpATWWDak+WJkngBrTXjPh2wUgRl3RFuKuOxUSKGmO+kcYG3FB2AAzuKFzMhYAqpAbUdF9QnenSJAncwBtDPxN7zh3N16Xe8lv6Y/92cFP2peeM4wNuIKXV9JBOwsVcCKhCakBNBEDkxgM96omfd67IXpvP3aWfFfzNvGGEQOQGARDKkxpQEwEQudH2xz4i0w3f+3NV+lHAiItnxLsjv5DGCVwHARDKkxpQEwEQOfXP7z4QO84cFp5U6ZkZYsrmXzkrGDlFAITypAbURABETmivEzF01UyRmpEmPK1iky6LNtPDhD/XCsbNEQChPKkBNREAcTOltWDVMjy40K71WxC1N+qYeLpfK2nsgAEBEMqTGlATARA381ivpmLpwU3C02vA8unS2AEDAiCUJzWgJgIgbuaL2YNFigd+9Gus03HnuUwcboYACOVJDaiJAIgbebJP8+xg5Q3lcDjE7F0rRaWQhtLvAfwXARDKkxpQEwEQ11Ouex0xau0ckeHIFAVdaRnphbLd6MR48dnM/qwNiOshAEJ5UgNqIgDieuqO/1Ycj40slCt+nI2/KGKuXja28136WFdEbBNV+7aQfh/ATAAECID4EwEQrlQObSSmblksMh2Fs+jzppP7RMTF08Z2gVRaZrroPH+49DsBZgIgQADEnwiAMPK31xAf/NBLXEm5KgqrZu9cKTYc32tsF1hdSIgTj/dqJv1uUB4BEMqTGlATARBGFXrWF2uO7hKFWcNX/ywW7V9vbBdYObOyRP/l07PDrPH3g9IIgFCe1ICaCIAwah0emn2JtcIs24LRYtqWJcZ2gZX+XcCDF06Jf4/4XPr9oDQCIJQnNaAmAiCu9UhYE7HjbIQo7Go5NVgMWfmTsV2gle7IFOPWzxfle9STfk8oiwAI5UkNqIkAiL/ol3wL/GWsSExNEoVd/x7eQQT9Os7YLvA6GRsl6o7vKv2uUBYBEMqTGlATARB/eWHgh2Ld8d2FsuzLteVwOkSVPs1Fx1mDhNPpNP64QEvf/vcbFogHetSVfl8oiQAI5UkNqIkACF2ZwFqiy/wRIjk9RRR2XUq6kr3MzAfTw0RSarLxxwVe8ckJ4o2hn0m/M5REAITypAbURACE7p8D2ohdkYX/3T+9Dl04KSoGNxCNJgWI8wmXjD8ulJq5Y7kow9VBQAAECID4EwEQuq/nDiu0RZ+Nte74HlGh53ui5tjO4mhMpPHHhVIXE+LEf0Z0lH5vKIcACOVJDaiJAAj9mr/7zh0XRVXz96wRD/Sol30iyO7Io8YfF0rpy9qMXT9P3BtYS/r9oRQCIJQnNaAmAiA6zh4kUjPSRVHV+A0LxH1BtcWLAz/KPhpYFKWf2KJfeq7m2G+k3x9KIQBCeVIDaiIAqu2J3u8XyZm/11bv36dkH4nTH3vJwU3GHxdaZTgyxdBVM7OPPhqfByiDAAjlSQ2oiQCots9//k7EXr0sirK+mTdc+AfUEA8G1xezd600/rhQ68jFM+L1IZ9KzwOUQQCE8qQG1EQAVNfjvZqKObtXCWdW4a7Fd23pRxrbTA/LfvzSATXFlM2Li/Too8PpFCFLJknPBZRBAITypAbURABUV5PJQeJSUoIoykpMTRYNJtj+fwxDVv0k0jMzjTcr1DobfzH7LGTj8wElEAChPKkBNREA1XRfYG0xdfNiUdQVdSU2e/mXv8YRvGSCSEpLNd6s0KvdjL7ScwIlEAChPKkBNREA1fRMv9bZV+Qo6tLPxL12Pb6v5g4Rl5MTjTcr9FpxeJso34OjgAoiAEJ5UgNqIgCqaeCKH4r0u3d/1dZTB8Qrgz7+/3G0nBaSvUhzUdcF7THbTA+Vnhf4PAIglCc1oCYCoHqe7NNcHL54WrijlkdsE8/0b/3/Y6k1touIjI823qzQSz8ZJHzLUlExuL70/MCnEQChPKkBNREA1fPFrEHiSspV4Y6at2e1eKxX0/8fi74ky4nYKOPNiqQOXTgl3h35pfT8wKcRAKE8qQE1EQDV8lBwwyJf+uXamrplyd/OwH2iT3MRcfGM8WZFUvrC0LaFY0SZgJrS8wSfRQCE8qQG1EQAVEuDiXZxKu68cEfp3zkcsWZW9vp/f42nbFAdsffcMeNNi6y2nD4oHg1rIj1P8FkEQChPakBNBEB1lOteVwxY8YPIdDiEOyojM1P0/m2KNK6iuh6wq0rPzBDvXbMuIXweARDKkxpQEwFQHU/1aym2njko3FX6ItBdF4yUxjV392rjTYu0wrculcYEn0UAhPKkBtREAFTH+1N6uO3on14xifHik5/6SeMavW6u8aZFWlFXYsSTfVtI44JPIgBCeVIDaiIAqmP2rpXCnXU2Plo0ndxdGlfwkonGmxZpJaWliM7zhkvjgk8iAEJ5UgNqIgCq4dFeTUV0YtEvuHxtHYuJFNYxX0tj+/zngcabFmk5nU4xf88a8WBP1gRUAAEQypMaUBMBUA2f//xd9gkP7qz950+IVwa3k8bWcGKA8aZFXocvnHYZTuFzCIBQntSAmgiAvq9c9zpiycFNwumGS79dWzvOHBaP924mje+1IZ8Yb1rklZaZLoJ+Hf+3JWrgkwiAUJ7UgJoIgL7v7REdRYSbLv12bW04sS87jBrH90hYE+NN3VLGq5TAJxEAoTypATURAH3fN3OHu+3Sb3+Vvgj00oObpbHpygXVyT4Rw911Jv6CeGPoZ9L44FMIgFCe1ICaCIC+rXJII/HT9mXZAcyd5XA6RfiWJdL4dGUDa4lTbroe8LWlf0TeZd4IaXzwKQRAKE9qQE0EQN/21rDPs0++cHdlOh1i4B8/SuPT3asFwC2nDhjv4pZacXibND74FAIglCc1oCYCoG9rEx4mUtLThLsrw5EpbAtHS+PTlQmsKRbtW2+8i1sqITVJVAxuII0RPoMACOVJDaiJAOi77guqLUavde9VNv4qfQmaj37sLY1RVzqghpi8eZHxLm6rZlPkxarhMwiAUJ7UgJoIgL7roeAG4rAHnP2rl77MSs2xnaUx6vztNUTfZdOMd3FbTbvOdxXhEwiAUJ7UgJoIgL7r9SGfZn/06gmVmpEuXhrUVhqjzl/zzbzhxru4rXaejRCVQxtJ44RPIABCeVIDaiIA+q4u80cIT6mUjDTxUHBDaYx/aRUeYryL2+pM3AVRe1wXaYzwCQRAKE9qQE0EQN/164ENwlMqLilBGt+1ao3rLNIz0413c0slpiaLwEXjpDHCJxAAoTypATURAH2T/hHm8dhzwlNK/y6icYzXenfklyI6Md54N7eUM8sppm5ZIu7vXlcaJ7weARDKkxpQEwHQN9Ua21lcTIwTnlJrj+2WxnitN4Z9Jo7FnDXezW31R8R28Wz/NtI44fUIgFCe1ICaCIC+qfO8ESIxNUl4Ss3ZtUoa47X0E0R2nDlsvJvb6kj0GVF9dCdpnPB6BEAoT2pATQRA3zRu/XyPOQNYr5FrZktjvNbT/VqK5RFbjXdzW11NSxYtpwVL44TXIwBCeVIDaiIA+p7yPeqJBXvXuv36v9dWj8XfS+O81mO9moq5u1cZ7+a20p+7b+ePzF6k2jhWeDUCIJQnNaAmAqDveW5AG7Hu+G7hSdV+5gBpnNfSL782ZdOvxru5tfSrqNzfgxNBfAwBEMqTGlATAdD3WEZ/LQ5dOC08qep9300a57XKBtYSg1f+ZLybW2v54a2iEgtC+xoCIJQnNaAmAqDvaTGtp7iY4DlnAKdnZoq3hn0ujdMoeMlE4XA6jXd3W+kngjzeq5k0Tng1AiCUJzWgJgKg7+kwa6BIzUgTnlIxifHilUHtpHEafTN/hEhKSzHe3W2VmJYsnu7bUhonvBoBEMqTGlATAdC3lAmoKXou/t6jTgDRj6T987sPpLEatZvRT8RevWy8u9tKfw7fHtFRGie8GgEQypMaUBMB0LdU6PmeGLt+nvCk2nRyn6iagyNpTSYHibNxF413d2u1/bGPNE54NQIglCc1oCYCoG95OLSxmLNrpfCkWnpwk3i8982/S1dj7DfZRws9qW62fA28DgEQypMaUBMB0Lc80ft9sSJim/CkmrF9magc0lAaq9G/hn4m9pw7ary7W2vk2jnSOOHVCIBQntSAmgiAvuWZ/q3FrrMRwpNq5NrZ4oEe9aSxGj3Vr6XYfHK/8e5urTm7V0rjhFcjAEJ5UgNqIgD6lhcGfiROXooSnlRhSyeLewNrSWM1erBnfbHqyA7j3d1aa4/tlsYJr0YAhPKkBtREAPQtrwxuJ2KTPOdMWqfTKbrMHyGN0xX9smuL92/wqDOYD0SdkMYJr0YAhPKkBtREAPQtrw/5VCSnpwpPqaS0ZPHpT/2lcV5P+NYlwuF0GDfjtjoTf1EaI7waARDKkxpQEwHQt7w9ooPwpNKvSKJfmcQ4zusZvHKGSM/MMG7GbXVBG/99QbWlccJrEQChPKkBNREAfUutcZ2FJ9WJ2HOi3vddpXFeT8AvY0WKB13FJDoxXlTmesC+hAAI5UkNqIkA6FsaTQwQnlT7o46Ld0Z+KY3zej75qZ9ISvecy8HFXI0XVfo0l8YJr0UAhPKkBtREAPQt+tU0PKk2nzogXh70sTTO66k/wSYSUpOMm3Fb6Zeme7Z/a2mc8FoEQChPakBNBEDf4mkB8I+I7eLJXBxB0xeDvpycaNyM2yo26Yp4bkAbaZzwWgRAKE9qQE0EQN/iaQFw0b714sHgBtI4r+eJ3s3FJS10eUoRAH0OARDKkxpQEwHQtzSeFCg8pfT1/GbuXCFK22tI47wefcHomMR446bcVjF8BOxrCIBQntSAmgiAvqXO+G+Fp1SGI1OMWTtXGuPNHLxw0rgpt5V+EsijvZpIY4TXIgBCeVIDaiIA+pZqo74SnlIp6Wmi929TpDHezJqjO42bcltdTIwTD4Xk/CNseDwCIJQnNaAmAqBveXNYe4+5kkZiapLonMPLwF1r9q6Vxk25rfSFoMsG1ZHGCK9FAITypAbURAD0La8N/kTEe8hZtHFJCeKDH3pJY7yZkWtmGzfltjoRGyWND16NAAjlSQ2oiQDoW14c+JE4HXdBeELpH5/WHf+tNMab6b54vHFTbqttpw9J44NXIwBCeVIDaiIA+pbn+rcR+6KOC0+oc5djstf1M47xZj6dOcC4KbfV74e2SOODVyMAQnlSA2oiAPoWfdHl1R5yEoV+JDIvl1F7b4LNuCm31bQti6XxwasRAKE8qQE1EQB9S+XQRmLmjhXCE+pI9FlRNrCWNMabeXVwO+HMcho355YKWzpJGh+8GgEQypMaUBMB0Lc80KOeGLF6lvCE2nb6oDS+nNAXXvaU6wF/8lM/aXzwagRAKE9qQE0EQN9SOqCGCFw0TjizsoS7a8nBTdL4cqJq3xbiVNx54+bcUtVHfyWND16NAAjlSQ2oiQDoez76obeIT04Q7q5Jm36RxpYTj/VqJrafOWTcXJGXvozNU31bSuODVyMAQnlSA2oiAPqeOuO7iGMxkcLd1W9ZuDS2nHg4tLFYdniLcXNFXtvPHBaPhnEZOB9DAITypAbURAD0PS8Nais2ndwv3F3fzB0mjS0nKgY3ED/tXG7cXJHXzzv/EA8G15fGB69GAITypAbURAD0PQ/0eE/M37NGZLn5e4AtpgZLY8sJ/USWUWvnGDdXpKU/dz2XTBD35uEsZng0AiCUJzWgJgKgb+q3PFykZqQJd9Y7I76QxpUTZQNri5AlE42bK9LSz0J+f2pPaWzwegRAKE9qQE0EQN/UOjxUxCVdEe4q/QhaXk+g8Nd8NWeIW49g7j9/QvxnREdpbPB6BEAoT2pATQRA3/R0v1biTLz7rgl8NS1ZVA5pJI0rpz76sbdIy0g3brbIatH+9dlnIxvHBa9HAITypAbURAD0XUsPbBLuqhOxUeLBnnk/gaLJ5O4i5upl42aLpFK14Nl/+XRpTPAJBEAoT2pATQRA3/Xt/JHCXbX19AFRocd70phyqvb4LuLUpSjjZoukzl+JFc2mdJfGBJ9AAITypAbURAD0XS8N/Egku+lEkCUHNor7e9SVxpRT74z8QuyPOm7cbJHU7nNH+fjXdxEAoTypATURAH1X+Z7vibXHdgl31LQtS0S57nWkMeXUK4M/dttahuPWz5fGA59BAITypAbURAD0XaUDamZ/DJzhyBRFXQP/+DFfa+hV7dvSLVcDyXQ4so8+GscDn0EAhPKkBtREAPRtepg5Gn1WFHXZFo7WAmgNaTw5VSmkkZi3Z7Vxs4Ve+6NOiDJacDaOBz6DAAjlSQ2oiQDo2yqFNhIzti8r8jX1Pv6xrzSW3LgvqLYI37rUuNlCr9Clk6SxwKcQAKE8qQE1EQB934c/9hYXEy6Joip9/b7GkwKkceTWqDVzhMPpMG6+0OpYTKR4fein0jjgUwiAUJ7UgJoIgL7v0V5NxaqjO4vsKGBMYryoNa6LNI7c6vXbFJFSRGcxZ2pBc8y6uaJCPtYuhFcgAEJ5UgNqIgCq4et5w0R6EZ0Mcjw2skBOpOgyf4S4knrVuPlCqdNxF0STyUHSGOBzCIBQntSAmgiAatCPbB0popNBdkUeKZCPUtv+2EfEFsHVQBwOh5i18w9RPh8LV8NrEAChPKkBNREA1fHl7MEiLTNDFHbpHzc/N6CN9Pi5Vf97mzh3Oca4+QKvi4lxoubYb6THh08iAEJ5UgNqIgCqo2rfFmLdsd2isOuXfevEE73flx4/t/49vGORXA7ux22/Z6+ZaHx8+CQCIJQnNaAmAqA69PXtvpg9SMQnJ4rCLD1QPRTSUHr83HqufxtxNPqMcfMFWrFXr2hBs4P02PBZBEAoT2pATQRAtVQObSRm7lguMgvphBD9TOPR6+aIsoG1pcfOrQo93yvU6wGnZaaLsKWTs9ccND42fBYBEMqTGlATAVA91tFfixOF9NGqfim1/svDpcfMC3/NllMHjA9RIOXMcoo1R3eJFwd+JD0ufBoBEMqTGlATAVA9+kfBwUsmiMKo5PQUEfDLWOkx82rx/g3GhyiQ0k/8+HhGXy77ph4CIJQnNaAmAqCaHg5tnH0EzFnAi0PHJSWIDrMGSo+XV5M3LTI+RL5L/53HrZ8nynWvIz0efB4BEMqTGlATAVBd1Ud/JQ5dOFWgVwiJuhIjmk8Nlh4rr/osm2p8iHzX9jOHueKHugiAUJ7UgJoIgOrST374Zt7wAl1s+UTsOVF73LfSY+VVp7lDjQ+RrzoZGyUaTLBLjwNlEAChPKkBNREA1VYxuIEYu35+9skbBVH6EcU3h7WXHievWkwNNj5Enis+OUEE/DJGlAvio1+FEQChPKkBNREA8UD3emLZoa3C4cx/CNx5NkI81a+l9Bh59faIjsaHyFMlp6WKQStniPu715UeA0ohAEJ5UgNqIgBC99KgtmL98T1aCHSK/NSmk/vEg8EF9/26J/u0MD5Ersup/U4ztv+efbTTuH0ohwAI5UkNqIkACF3pgBqi9rguYtfZI9lr5OWl9JNJ/ojYJvy1bRm3n1f6x7UZ+Vi0Wh/Tb4e2FMi1ieETCIBQntSAmgiA+Iu+Jl7d8d+KozFn8nRmsH6kbebOFdJ28+PewFrifMIl40PdtPTx60cz/4jYLl4f+ln2otLGbUNJBEAoT2pATQRAGFUb9ZWIuJj7EJjpdIgRa2ZJ28sPPZTuiTxqfKiblh5G9UWkXxn8sbRNKI0ACOVJDaiJAAgjf3sN0WhSQPYJHXqQymnpH9X2WPy9tL380APg8sNbjQ91w9LHvCJim/jngA+k7UF5BEAoT2pATQRAuKJ/9FprXGex4+zhHF8tJD0zQ3z+83fStvJD/27ijO3LjA913dKXs1m4b614dXA7aVuAmQAIEADxJwIgbqRKn+ZiecRWkZqRLm5W+m0aTCzYRZb1o5FDVv1kfCiXdTklUYxcM1s8EtZE2g7wXwRAKE9qQE0EQNyMHgK/37BQXEq6Im5UKRlp4o0CXARap5+8Yf9ljPGhpIq8HJ398TPr/OEmCIBQntSAmgiAyAn9qFrn+SPE2fhocb1KTk8VT/R+X7pvfn08o6/xof6/9DN99Y+pP/yhV/al7Yz3BQwIgFCe1ICaCIDIqbJawHpn1Bdi+5lDIt2RIZ0lnJiaLMoE1pTul1/1vu8mnYyiP3ZqRpr4acey7EWsC+Nx4ZMIgFCe1ICaCIDIrcd7NRODV84Qpy6d/9sJIidjz0m3LQjVRn8pLicn/v/j6CebHDh/UtgWjhGl7QW36DSUQACE8qQG1EQARF6U615HNJoUKH4/tCU7kOm15dQB6XYF4c1h7cXpuAvZj5GQmiSmbPpVvDvyy+wlYoy3BW6CAAjlSQ2oiQCI/Himf2sRtGhc9tHAX/atl35eEF4Z9LHYe+6Y2B15RHwwPUw8HNpYug2QQwRAKE9qQE0EQOSXvlbfk31biC9mDxJVtf+WLsAjc2UDa4nqo78SH/zQSwt+jbikG/KLAAjlSQ2oiQCIghL222Sx7vie7DNyKwY3kH6eW3qY7LpglNh6+qBoPq2n9HMgDwiAUJ7UgJoIgCgovX+fmn1SSNSVWDF58yLx7IDW0m1yQv9uX93x34qFe9dmn1msb48AiAJCAITypAbURABEQdED4F+lXxd4X9Tx7KOB5Xu8J93WFf2qHxVDGmRv53zCJZHpdGRviwCIAkQAhPKkBtREAERBuTYA/lX64tAzd6wQltFfZX9X0Hifv1To+Z54f0oPse74buH4b/D7qwiAKEAEQChPakBNBEAUFFcBUC990eYD50+Ir+cOc3md3qf7tRKj1s7OvpybcXFpvQiAKEAEQChPakBNZYNqT3QxSQK5dr0AqJce7OKTE8Xc3avEm8M+z769fvWOJpODxLpju0Taf9cSdFUEQBSg5FbhIR2Ei7kQUIXUgJrKdq89ysUkCeTajQLgX+XMcoq45ATRb9k0MXXzryIxNcnlUb9riwCIApSkBcC2wsVcCKhCakBN93Wv1dfFJAnkWk4CYF6KAIgCdLVVeGgz4WIuBFQhNaCmskG1uriYJIFcIwDC81mutAoPtggXcyGgCqkBNd0bUKu5PEkCuUcAhOezxLcKD3lWuJgLAVVIDaipzgTbG9rEmClPlEDuEADh6Ux2a3TzH3qVES7mQkAVUgNq2nPu6JPaxHjBOFECuUUAhKcr3/O9Q7MPbComXMyFgCqkBtSkBcCHtIlxq3GiBHKLAAhP91jvZvOFi3kQUInUgJq0AOhvtlvCjRMlkFsEQHi6x3o1DRIu5kFAJVIDatp17uQtdwU2smuTo8M4WQK5QQCEh3NW6dviHeFiHgRUIjWgpkvJyX6fzB7TxGy3xLqYMIEcIwDCw12YsuXXh4SLeRBQidSAuiZuXPis2WbZ7mLCBHKMAAhPZrJZ55+6dN4kXMyBgEqkBtS17PDm26v2bTHNzMfAyAcCIDxY5p0fvPbVyQuRtwgXcyCgEqkBtX02c0B7s82a4GLiBHKkV2EGwKkEQOTL6dahnf4THx8vzX2AaqQG1PbZzP6VzTbLWRcTJ5AjQYvGi8Kos/EXRaNJAdLjATllslt+mb175f3CxdwHqEZqQG0Zjky/fw74YLxx4gRyKuCXsaIwSg+ADSbapccDcsJksyZ0mT/iK4fTKc17gIqkBvD0oHZvaRNminECBXKCAAhPpAXAA90Wja4iXMx5gIqkBjB99+p7tAlzmXECBXKCAAhP9NyANkN2nosoLlzMeYCKpAZwKelK8Yq9G7XQJs0k4yQK3AwBEB4oueHkro8IF/MdoCqpAeiWHtxY3hxgmadNnE4XkylwXQRAeBh9DhuR4cgsJlzMdYCqpAagO34psljdCV1ammzWiy4mVOC6CIDwMBGd5w97iZM/gL+TGsBfgpZPN90dUHOBmaOAyIXXh3wiOs0dWuA+ntFXPNmnhfR4wA2kmwOtvTed2neHcX4DVCc1gL9kOh1+X84ZUkWbRKNdTKzAdfkXEuPjADfgfCi44fIfti2t5Mzi6B9gJDUAo/u61+6uTaZpLiZYAPBQlkutp4c0MM5nAP4kNQCjIat/qlDKZvlFm1Sz5EkWADzPQyENh204sec243wG4E9SAzBKy8woNmDFD2+bbJa9ZkIgAM/mNNusazafOlDBOJcB+B+pAbiydP+GYo+FNW1hslnPu5hwAcATOE12y953RnR6I+bqZWkeA/A/UgO4nqUHN5esHNo4UJtkM1xMvADgVia79bxl7NctDl88fatx/gLwd1IDuJFVR3aYtYl2osZhnHwBwJ1eHtzuq+Ox5/5hnLcAyKQGcCNZWVl+a4/tLvtE7/fHaRNuipnvBAJwO8uVFwe27Z6akc61foEckhpATvx2cHPFqn1bjjfb+DgYgFvF1hj7dcjJS+dNxnkKwPVJDSCnVh/dWa5sYK1JZj4OBuAeV6uN+tIWcfG0v3F+AnBjUgPIjZVHtpd9sOd7/U02a7yZj4MBFA2n2W6JfXlwu0+jE+P4zh+QB1IDyK0Vh7ff/nSf1u3MNmuEi4kaAApShslm2fLOyA61Y69eLmGcjwDkjNQA8mL5oS3F+y0Lr6n9q3y1NkFnupi0ASC/HKU+f2vau11avhRx8TQnfAD5IDWAvMpwZBYbtnpWFZPNOlqbqBNdTN4AkDc26yWTvXrPdYd2lD127Jg0/wDIHakB5Iczy+k3aszo4m8Ftvq3f0CNDdrEfdXMdwMB5JHJbr1UKbTRz68N/Pj5HacPFdeXojLOOwByT2oABSVw8YT7633fLUj7l/sulosBkEspZrtlY4dZgz6dvu33u4zzC4D8kRpAQToRe+626p+//0KpDv8eYuZjYQA3l2WyWc/cGVC9x7eLRlVNTk/lu35AIZAaQEGLjo722x957M4nQ5u9U77ne0tNdmuCiY+FAfydQ7+iR6XQhjPrTuz6+Im4qNuvpqdI8wmAgiE1gMI0Z8+qO1uGh7QsHVBzkzbhJ7vYCQBQjMlmvfJknxYLW4UH1z4Wc7akcd4AUPCkBlAUgpeGP35nYPMQ7V/8+tqBXEkEUFOm2WbdUS6oUcclBzaVM84TAAqP1ACKQlJ6ut+6U0fvaDYx8EVTt+pcTg5Qi/4VkDhNv4F//PjMllOHbzHOEQAKl9QAilKm0+F3OfnqLe+O+OLdKr2b698PvMz3AwGf5TDbrNH3tHtjzlezBz+a7sgsri8dZZwXABQ+qQG4y/LDW8s80avZZyabRf9+IMvGAL4lWQt/i+qM7dL86+7d7jC+/wEULakBuNPKiG3Fhq+e9ew93ax9tZ1FpJmjgYAPsEQ8Etb0yzm7Vj50LPpsMeP7HkDRkxqAu6VnZvqdunT+H53mDH3+0bCmM7SdR6LGKe9UAHgwp8leI+r+ng2G/Ljt9yqRl6NvNb7XAbiP1AA8SWpGWvGaYzs18e9W7XeT3XrFzBFBwNNlmWyWaH+7dV7z6d+9NG33bul9DcD9pAbgac5eOu83cuWMiq8M+egLs92yx8UOB4AnsFnTzfbqK1pO6/nByDWz/I3vZQCeQ2oAnurQxZO3zNr1x7PajmaEyW6Jl3Y+ANwp+sk+zb/deHLvQ+cTYksY378APIvUADxZVlaW34LDh4q/MabH8/d3r/ezttO5ZOZjYcA9bBanyWY5/XivZiNfHft55eir8ZzgAXgJqQF4i+Gr5tzeKjykrcluWaHtjJKknROAwhRf2lZjXrcFI6st3r+BEzwALyM1AG9yMTGu+OzdKx95a/jnX5tsllMudlIAClamyWbd0nH2oI/n7V59v/E9CcA7SA3AG0UnxpesOvyDKhWDG3yv7ZyizVxaDihoGWab5fzjvZoGfjN/wAOJqclcvg3wYlID8Gbrju65peXU0LcfCm4422S3cqIIkH9ZZpv1zEuD2o5rEx7yTEJqEt/zA3yA1AB8wYzty/y/njfsc5PNsl7bgaW72KkBuLkUU9dqi6q2qFZ744l9dxnfZwC8l9QAfMWVlKu3dFgw+tG7AmsFmTkaCOSGfuWdiNLdrJ/9uOW3Cnv37pXeXwC8m9QAfInD6fTLcGQWazy528PPDWgz2WS3Rpn5fiBwPRn6si5vDe8Q3HdZeGn9vaMvvWR8XwHwflID8FU7z0bc8UrnpvVKffX2HG1Hl+xi5weoKstst1y4O6DhxKZT+7yZlJZS3Pj+AeBbpAbgy7Zt2+b304YlD9wbVKvjfy8rp3/UZdwZAipxmuyWVa8P+aTuz3s2+59LSJDeNwB8j9QAfJ3+kdaZ+Iu3fLdi+sNP9G4W5m+3XtB2gpkudoyAL0u/v3vdg1V6N++4+ujO+y8mxnF2L6AQqQGo5qMf+r1wd0DDH8x/fj+QI4LwdQ6TzXqiXGDtAd9vWFDR+H4AoAapAajmcmqq3+B1y001xnzd1GSr/ou+g3Sx0wS8nX7N7PhSduu0L2YPqTFp/UIu3wYoTGoAqjp5KarYuuO7y/vbq3U227msHHzO3neGf/nexpP7y8QnJ/JxL6A4qQGoTP9+YKbDUeyn7csqVAxr0N9kt54yc0QQXsuS5m+37PnngNZfH4uJvNvhdEiveQBqkhoA/jRx5+Jin88aVK1Ut2ozzTZLjPnPj9Bc7GQBT2Q5+3Bow8FBv456eseZ/RzxA/A3UgPA/ySlpfjN2fVH2SYTg1poIXCNvJMFPE6SZk7o0kl1lh/ecofxNQ0AOqkBQBafnFDi5KXzZR4ObRJgtltOaDLMHBGE59Bfi6lmm3XvIx1qNeo5sE+plIw0jvoBuC6pAeD6jsWc9vt4RnCVqn2aD9dC4EkXO2KgSJmyL99m3f32iI49Pp/Rv4zxNQsArkgNADe39MDG23r9PrmO2VZ9nrYTTjDulIEicumx3u8PHbF69ssHzp9kWRcAOSY1AORMWmZ6sT6Thpe7471nPzDZrQdc7JyBwpJhtlv+uK1dvdobTxy4x/jaBICbkRoAcs7pdOrLxvh9taD/P14d3C7UZLMc1XbM6S522ED+2azJZQJq7nx3xBdNp25adJv+2tOXLjK+LgHgZqQGgLw5felCCfvCMS+/MPCjUSab9by08wbyyGS3ZmoONphg7xW2ZHJl42sPAHJLagDIn82nDtxzf6eWdbUd9+8ajgYiv1Lv6VZtbI1RnV47FXf+H8bXGwDkhdQAkH+Rly4V+2H7srJP9GnRtmxgrX1mmzXNxY4duJ4sk9169cGe9Vc+1rdFrYjoM3ddunpZep0BQF5JDQAFq9dvk+6tO77rIC0EHjFnf3lf2tkD10orG1h7a+vpYZ8u2LuWEzwAFAqpAaDgXUi4dFvT8LC37w6oOV7bwV92sdMHnNo/Ek6W6fpOv/6/T3vG+BoCgIIkNQAUjnMJcX6bTh30fyS0WT2TzbrNzJVE8DeWma2m93x9y8m9d6akp0mvHwAoSFIDQOFyOJ1+q4/uuuexbvU/M3V+d7vZxokiitK/55dwT4d///Fy3zZ1ktNTSziznNLrBQAKg9QAUDQWLlzoZ5s++LF7u7473GSznjDrHwHKIQG+yWG2W7b/c1DrTl2Ght1/5MgR6fUBAIVJagAoWr/s+uPODrMGWcw26w9aMEh1ERbgUywXTd0sQ8aun/fCptN7ihtfDwBQFKQGgKKXmJpc7Gz8xXveGvF5/VL2Wju1oJBi5juCvkQ/uptY2lZ7XteFo1/V/tZ3ZDgypdcBABQVqQHAfeJTUvyazpx078uDP+6mBQb9RBGHizAB76GH+KumbpaVtcd92+bb6eEljH9zAHAHqQHA/Tac2ldi1Lo5//QPqDlSCxBcVs5b2SwHXx/ySZeRq2c9HBkfXcz4dwYAd5EaADzHltMH7wlaNM5qtlt+07CItJcw2a2Jmonz96x5/kj06ZLGvysAuJvUAOBZsrKy/HqsmlT8zZEdmpjslu1awLhq5vuBnijLbLPGP9Cj7rx/j+38ypKjO4vrfzvj3xMAPIHUAOCZEtOS/eyLxlR+Z+QXPbSwsTc7cMghBO6RYrJZ1n44vdfnI1bPudP4twMATyM1AHi2/eeP3zZvz+oXywTUnKgFjwQXYQRFynLu3VFf2ObtXv1EzNXLnOQBwCtIDQDe4Y+InXdXDm1heaBH3WVaEEk0c0SwKDm14BdbKbTRtHcGtqkae/Uy3/MD4FWkBgDv8v3GBXe0mNbzU7N+fWGbNdlFWEEBMtktCZVCGs7/4MdQ6+ZTewl+ALyS1ADgfVIy0op1GBv21F3NXgzVQuBxM0cDC0OGFv623m554quZ25eVMf4NAMCbSA0A3ikuLs5v074dd1Qb1vEFLQTO1QJLposQg7xJMNtqhHVbMOaJjdu33MrZvQC8ndQA4N2cWjg5Gn32lmqjO1kfCWvym8lmueIi0ODmHCa79cILAz+a3nRq0OPOLGf2kjzG5xsAvJHUAOA7Zu/6494Hen3ayWy36NcXZiHpnEsrZbfMf31U+8Z7zh27y/i8AoC3kxoAfMuSoxElQhZPeMHUtXp/k90abeb7gTeiPzcHS9lrfj1nz6oKu84flZ5PAPAFUgOA70lJT/OLjI/+R6tpoc89FtZ0kRYEE0zZS5lIAUhVjtIBNc9X7dNiwPBVMx+NvBzN9/wA+DSpAcC3nY2/ePubw9q/f0+3ar+b/7ysnDEMqUQPwRfvDqj182c/f/eq8bkCAF8lNQD4vj2RR/1GrP650iOhTbuYbdZDZjU/Fs4q1c26pNbYLi2GbVjon5CWIj1PAOCrpAYAdew5d6zkqLVzXjTZLOPMal1W7pzJXj1gy6mDFU7HXShufF4AwNdJDQBq0b/rpi8dY/9l9PP32qv/arJbL5l984ig02yznHoktMHgubtXVdR/Z+NzAQCqkBoA1NXn17Gl6k+0fWK2W1ZqgSnNRYjyVpfMNuvsTnOGWmdvXcIRPwDKkxoA1HYqLqrE/L2rH6var2U3k90S5SJMeQ1t/Fmaje9P7dl6/p615fSzoY2/LwCoSGoAgO547IWSlQYGPvtgcP1JZpv1otl7lo3RP77O0MZ86tFeTXrW/mFymSspV0sYfz8AUJnUAIBrLdiz/pYPf+hT7d7Amou0YBX734BlDF2eQhub5fhT/VqO/OiHvk8fj4kqZvx9AAAEQAA5NGHjgnvb/tjnIy1gLdGkuAhf7qQHP/0qJ9P6Lw+3/n5oy+3G8QMA/kdqAMD1xFyNL7H19MHyzw74oKEWttZoMl2EsaKWZrJbx7Wb2f9tbWz+6ZkZ0rgBAH8nNQDgZvSlY7afOXRLtdFfPW8Z3WlgmcCau7UgFmO2FUEgtGWfnRz5SFiTVdVHd+pmGdfpQX08XLoNAHJOagBAbvVaNqVi0K/jWv5raPvBJpt1mRbQTmvSpfCWd8la8NunbXte86nBYdpj1fh514pSxnEAAHJGagBAXu2KPFpy/t61lRbsXftW2xl9Wpnslr5aeJtrslv3av+NM+fsTOIMzUXtPhu1/04rZa8eNGz1zIbaNl/Utl0u6kosZ/QCQD5JDQAoCAmpScXOXY65XXOPpozm/kZTAh6p0rfFW1X7taxbtW+LppqWf2rZqGq/FrWf6tvqxX7Lwx/SbltO46+569zl6JJ8rw8ACpbUAAAAgG+TGgAAAPBtUgMAAAC+7f8ABIzMYp/8JlMAAAAASUVORK5CYII=;clipPath=inset(0% 28.67% 0% 19%);movable=1;resizable=1;rotatable=1;deletable=1;editable=1;locked=0;connectable=1;" vertex="1" parent="4RjpusguZEQViD7oRY8Q-6">
          <mxGeometry y="3.0900000000000034" width="50" height="53.82" as="geometry" />
        </mxCell>
        <mxCell id="4RjpusguZEQViD7oRY8Q-17" value="&lt;i&gt;Simulated Modeling&lt;/i&gt;&lt;div&gt;&lt;i&gt;runs weekly&lt;/i&gt;&lt;/div&gt;" style="text;html=1;align=center;verticalAlign=middle;whiteSpace=wrap;rounded=0;fontSize=16;" vertex="1" parent="4RjpusguZEQViD7oRY8Q-6">
          <mxGeometry x="5" y="68.38" width="200" height="30" as="geometry" />
        </mxCell>
        <mxCell id="4RjpusguZEQViD7oRY8Q-9" value="" style="endArrow=classic;html=1;rounded=0;fontSize=12;startSize=8;endSize=8;curved=1;entryX=0.25;entryY=0;entryDx=0;entryDy=0;exitX=0.25;exitY=1;exitDx=0;exitDy=0;" edge="1" parent="1" source="4RjpusguZEQViD7oRY8Q-4" target="bkZSs18tM1RNsjHw4RB3-33">
          <mxGeometry width="50" height="50" relative="1" as="geometry">
            <mxPoint x="540" y="360" as="sourcePoint" />
            <mxPoint x="590" y="310" as="targetPoint" />
          </mxGeometry>
        </mxCell>
        <mxCell id="4RjpusguZEQViD7oRY8Q-10" value="&lt;i&gt;spark-submit&lt;/i&gt;" style="text;html=1;align=center;verticalAlign=middle;resizable=0;points=[];autosize=1;strokeColor=none;fillColor=none;" vertex="1" parent="1">
          <mxGeometry x="260" y="310" width="90" height="30" as="geometry" />
        </mxCell>
        <mxCell id="4RjpusguZEQViD7oRY8Q-11" value="" style="endArrow=classic;html=1;rounded=0;fontSize=12;startSize=8;endSize=8;curved=1;exitX=0.75;exitY=0;exitDx=0;exitDy=0;entryX=0.75;entryY=1;entryDx=0;entryDy=0;dashed=1;" edge="1" parent="1" source="bkZSs18tM1RNsjHw4RB3-33" target="4RjpusguZEQViD7oRY8Q-4">
          <mxGeometry width="50" height="50" relative="1" as="geometry">
            <mxPoint x="290" y="400" as="sourcePoint" />
            <mxPoint x="340" y="350" as="targetPoint" />
          </mxGeometry>
        </mxCell>
        <mxCell id="4RjpusguZEQViD7oRY8Q-12" value="&lt;i&gt;monitoring&lt;/i&gt;" style="text;html=1;align=center;verticalAlign=middle;resizable=0;points=[];autosize=1;strokeColor=none;fillColor=none;" vertex="1" parent="1">
          <mxGeometry x="445" y="310" width="80" height="30" as="geometry" />
        </mxCell>
        <mxCell id="4RjpusguZEQViD7oRY8Q-15" value="" style="endArrow=classic;html=1;rounded=0;fontSize=12;startSize=8;endSize=8;curved=1;entryX=0.25;entryY=0;entryDx=0;entryDy=0;exitX=0.25;exitY=1;exitDx=0;exitDy=0;" edge="1" parent="1" source="bkZSs18tM1RNsjHw4RB3-33" target="4RjpusguZEQViD7oRY8Q-7">
          <mxGeometry width="50" height="50" relative="1" as="geometry">
            <mxPoint x="350" y="400.62" as="sourcePoint" />
            <mxPoint x="350" y="431.62" as="targetPoint" />
          </mxGeometry>
        </mxCell>
        <mxCell id="4RjpusguZEQViD7oRY8Q-16" value="" style="endArrow=classic;html=1;rounded=0;fontSize=12;startSize=8;endSize=8;curved=1;entryX=0.75;entryY=1;entryDx=0;entryDy=0;exitX=0.75;exitY=0;exitDx=0;exitDy=0;" edge="1" parent="1" source="4RjpusguZEQViD7oRY8Q-7" target="bkZSs18tM1RNsjHw4RB3-33">
          <mxGeometry width="50" height="50" relative="1" as="geometry">
            <mxPoint x="363" y="411" as="sourcePoint" />
            <mxPoint x="363" y="441" as="targetPoint" />
          </mxGeometry>
        </mxCell>
      </root>
    </mxGraphModel>
  </diagram>
</mxfile>
